<svg xmlns="http://www.w3.org/2000/svg" height="24" width="24"><path d="M16.082 1c-6.064-2.25-12.828.855-15.077 6.92a11.658 11.658 0 0 0 .337 8.973A11.652 11.652 0 0 0 7.924 23c1.31.486 2.678.733 4.067.733 4.888 0 9.312-3.076 11.009-7.653 2.249-6.065-.854-12.83-6.918-15.08" fill="#fff"/><path d="M7.936 22.78C3.45 21.088.454 16.727.48 11.93a11.44 11.44 0 0 1 .74-3.99 11.442 11.442 0 0 1 6.032-6.43 11.447 11.447 0 0 1 8.812-.284c4.63 1.746 7.48 6.17 7.456 10.851a11.464 11.464 0 0 1-.741 3.989c-2.241 5.942-8.9 8.954-14.843 6.713m15.292-6.544c2.334-6.19-.804-13.124-6.995-15.457a11.924 11.924 0 0 0-9.18.295A11.917 11.917 0 0 0 .773 7.771 11.912 11.912 0 0 0 0 11.926c-.027 5 3.094 9.541 7.767 11.302 6.19 2.334 13.127-.803 15.46-6.993" fill="#be952e"/><path d="M9.185 19.62a8.065 8.065 0 0 1-4.56-4.222 8.063 8.063 0 0 1-.243-6.21 8.069 8.069 0 0 1 4.222-4.561 8.07 8.07 0 0 1 6.212-.24 8.16 8.16 0 0 1 5.308 7.616 8.074 8.074 0 0 1-.504 2.816c-1.553 4.2-6.234 6.354-10.435 4.802m10.844-4.651a8.504 8.504 0 0 0 .53-2.968 8.599 8.599 0 0 0-5.591-8.025 8.504 8.504 0 0 0-6.546.254 8.501 8.501 0 0 0-4.45 4.806 8.535 8.535 0 0 0-.533 2.974 8.542 8.542 0 0 0 .79 3.57 8.499 8.499 0 0 0 4.805 4.449c4.427 1.635 9.359-.635 10.995-5.06" fill="#be952e"/><path d="M8.434 15.43a8.345 8.345 0 0 0-.115-.305 5.305 5.305 0 0 0-.112-.259H8.18a8.97 8.97 0 0 0-.224.566 2.877 2.877 0 0 1 .244-.009 5.9 5.9 0 0 1 .236.007M7.88 15.2l.04-.097c.106-.263.172-.45.197-.562.007-.033.018-.055.034-.064a.183.183 0 0 1 .085-.014c.027 0 .05.005.065.015.016.01.032.029.046.057.043.083.1.205.17.366a16.87 16.87 0 0 1 .269.654c.082.214.149.333.198.36a.22.22 0 0 0 .038.015c.047.014.07.036.07.066 0 .033-.022.057-.066.07a1.172 1.172 0 0 1-.264.019c-.13 0-.217-.007-.26-.02-.044-.012-.066-.036-.066-.07 0-.026.027-.05.08-.069l.017-.006a.092.092 0 0 0 .043-.026.064.064 0 0 0 .012-.042.729.729 0 0 0-.058-.209.172.172 0 0 0-.02-.033.038.038 0 0 0-.016-.01.62.62 0 0 0-.088-.008 3.6 3.6 0 0 0-.168-.003h-.054c-.111 0-.185.002-.222.007-.036.004-.06.012-.07.024a.32.32 0 0 0-.05.092.313.313 0 0 0-.025.105.1.1 0 0 0 .016.058.11.11 0 0 0 .05.038l.039.015c.046.015.069.038.069.068 0 .033-.019.057-.056.07a.855.855 0 0 1-.224.019.854.854 0 0 1-.225-.02c-.037-.012-.055-.036-.055-.07 0-.028.022-.05.065-.069a.348.348 0 0 0 .043-.02c.056-.034.108-.114.157-.24l.025-.066zM10.266 14.521a.504.504 0 0 1 .108-.026c.013 0 .025.004.038.011a.079.079 0 0 1 .029.032.56.56 0 0 1 .058.144.573.573 0 0 1 .023.15.12.12 0 0 1-.017.07c-.012.016-.03.024-.052.024-.033 0-.077-.033-.132-.1a1.233 1.233 0 0 0-.071-.079.382.382 0 0 0-.147-.094.559.559 0 0 0-.194-.032.423.423 0 0 0-.341.147.607.607 0 0 0-.125.405c0 .22.053.4.159.54.105.14.239.21.4.21.066 0 .127-.01.184-.032a.387.387 0 0 0 .195-.15c.032-.043.06-.064.082-.064.02 0 .036.01.047.03.012.02.018.047.018.081 0 .069-.01.123-.03.163-.019.04-.045.06-.078.06a.04.04 0 0 1-.01-.002l-.017-.003a.877.877 0 0 1-.421.108.9.9 0 0 1-.313-.054.806.806 0 0 1-.261-.155.776.776 0 0 1-.195-.28.929.929 0 0 1-.067-.359.9.9 0 0 1 .044-.289.737.737 0 0 1 .134-.24.722.722 0 0 1 .263-.202.809.809 0 0 1 .476-.06c.049.009.12.023.213.046M11.405 15.911c.07 0 .124-.01.162-.028a.286.286 0 0 0 .11-.115.618.618 0 0 0 .034-.067c.027-.056.055-.085.085-.085.019 0 .033.01.043.028.01.02.016.045.016.078a.898.898 0 0 1-.054.294.194.194 0 0 1-.038.066.066.066 0 0 1-.05.02.795.795 0 0 0-.174-.027h-.649a.742.742 0 0 1-.199-.016c-.026-.01-.04-.029-.04-.056 0-.034.023-.06.07-.077a.215.215 0 0 0 .047-.023c.016-.011.026-.058.033-.14.005-.083.008-.246.008-.49a8.77 8.77 0 0 0-.008-.42.616.616 0 0 0-.021-.177c-.008-.011-.031-.025-.07-.04-.04-.016-.059-.04-.059-.07 0-.028.017-.048.05-.06a1.09 1.09 0 0 1 .248-.015c.133 0 .215.005.248.016s.05.031.05.06c0 .03-.024.054-.07.07a.225.225 0 0 0-.05.025c-.014.012-.024.055-.03.13-.006.074-.01.187-.01.34 0 .187.002.341.006.463.003.12.008.195.015.22.009.037.03.063.064.076a.59.59 0 0 0 .191.02zM12.214 16.075a.744.744 0 0 1-.2-.016c-.026-.01-.04-.03-.04-.056 0-.034.024-.06.07-.077a.206.206 0 0 0 .048-.023c.016-.011.027-.064.034-.157.007-.094.01-.251.01-.473 0-.16-.003-.296-.01-.408a.753.753 0 0 0-.023-.19c-.007-.01-.03-.023-.07-.04-.039-.016-.058-.04-.058-.07 0-.029.017-.048.05-.059.034-.01.115-.015.241-.015h.678a.5.5 0 0 0 .109-.013l.058-.012a.053.053 0 0 1 .048.026c.015.027.03.065.043.116.014.051.02.094.02.13a.132.132 0 0 1-.018.076.06.06 0 0 1-.052.027c-.025 0-.053-.026-.083-.077l-.033-.052a.146.146 0 0 0-.073-.052.366.366 0 0 0-.124-.018h-.151a.821.821 0 0 0-.162.012c-.037.008-.062.02-.075.038-.012.015-.02.047-.026.095a1.855 1.855 0 0 0-.01.212v.09c0 .034.004.056.01.065.006.008.02.012.04.012h.198c.06 0 .101-.008.125-.025.024-.017.039-.048.045-.094l.005-.026c.01-.073.034-.109.072-.109.032 0 .054.02.066.06.012.04.018.13.018.273 0 .14-.006.231-.018.27-.012.04-.034.06-.066.06-.038 0-.062-.036-.072-.11l-.005-.026c-.006-.045-.021-.075-.045-.093-.024-.017-.065-.026-.125-.026h-.195c-.02 0-.034.006-.042.019a.226.226 0 0 0-.01.089v.103c0 .097.002.168.005.214.004.047.01.08.02.1.009.024.033.04.07.051a.75.75 0 0 0 .177.015h.143c.077 0 .136-.01.176-.03a.255.255 0 0 0 .106-.108.536.536 0 0 0 .034-.074c.021-.055.045-.083.07-.083.02 0 .034.01.045.028.011.017.016.042.016.074a.682.682 0 0 1-.017.138 1.147 1.147 0 0 1-.047.162.212.212 0 0 1-.036.062c-.013.014-.026.021-.04.021a.54.54 0 0 0-.174-.027zM14.603 15.307c0-.218-.048-.385-.145-.5-.097-.116-.237-.173-.42-.173a.44.44 0 0 0-.14.017c-.033.012-.054.03-.062.053a.767.767 0 0 0-.023.169 8.848 8.848 0 0 0 0 .76c.006.116.014.185.023.21.007.021.034.04.083.056a.556.556 0 0 0 .174.024c.17 0 .299-.051.383-.153.085-.102.127-.257.127-.463m-1.024.772a.552.552 0 0 1-.177-.018.065.065 0 0 1-.043-.065c0-.027.02-.049.058-.065.04-.015.063-.028.07-.039a.667.667 0 0 0 .024-.19 8.516 8.516 0 0 0 0-.837.771.771 0 0 0-.024-.19c-.007-.01-.03-.024-.069-.04-.04-.015-.059-.039-.059-.068 0-.03.016-.05.047-.063a.581.581 0 0 1 .18-.018c.016 0 .048 0 .094.002a3.41 3.41 0 0 0 .384-.006c.276 0 .489.071.638.213.15.143.224.344.224.606 0 .256-.076.45-.229.582-.153.132-.376.198-.67.198-.025 0-.067 0-.125-.003a3.939 3.939 0 0 0-.323.001M15.91 15.43a8.044 8.044 0 0 0-.228-.564h-.028a8.966 8.966 0 0 0-.224.566 2.88 2.88 0 0 1 .244-.009 5.868 5.868 0 0 1 .236.007m-.553-.229c.008-.022.021-.055.039-.097.106-.263.172-.45.197-.562.007-.033.018-.055.034-.064a.184.184 0 0 1 .085-.014c.027 0 .05.005.065.015.016.01.032.029.046.057a6.9 6.9 0 0 1 .17.366 17.315 17.315 0 0 1 .269.654c.082.214.149.333.198.36a.22.22 0 0 0 .038.015c.047.014.07.036.07.066 0 .033-.022.057-.066.07a1.17 1.17 0 0 1-.264.019c-.13 0-.217-.007-.26-.02-.044-.012-.066-.036-.066-.07 0-.026.027-.05.08-.069l.017-.006a.09.09 0 0 0 .043-.026.064.064 0 0 0 .012-.042.72.72 0 0 0-.058-.209.168.168 0 0 0-.02-.033.038.038 0 0 0-.016-.01.617.617 0 0 0-.088-.008 3.603 3.603 0 0 0-.168-.003h-.054c-.111 0-.185.002-.222.007-.036.004-.06.012-.07.024a.318.318 0 0 0-.05.092.311.311 0 0 0-.025.105.1.1 0 0 0 .016.058.11.11 0 0 0 .05.038l.039.015c.046.015.069.038.069.068 0 .033-.019.057-.056.07a.855.855 0 0 1-.224.019.855.855 0 0 1-.225-.02c-.037-.012-.055-.036-.055-.07 0-.028.022-.05.066-.069a.355.355 0 0 0 .042-.02c.056-.034.108-.114.157-.24l.025-.066zM3.088 7.848a.292.292 0 0 0-.067-.019.175.175 0 0 1 .05.124.269.269 0 0 1-.08.195.177.177 0 0 1-.084.05.136.136 0 0 1-.085-.004.136.136 0 0 1-.065-.057.18.18 0 0 1-.025-.095c0-.036.006-.071.02-.104.083-.208.211-.276.383-.207a.64.64 0 0 1 .308.233c.065.099.082.187.05.265-.031.077-.108.15-.231.217.044.127.051.228.021.301a.35.35 0 0 1-.19.18.436.436 0 0 1-.318.015c.05-.124.078-.224.085-.3.006-.076-.01-.121-.048-.137-.038-.015-.072.022-.103.111a.856.856 0 0 0-.045.282l-.45-.182c-.055-.205-.074-.33-.056-.375a.37.37 0 0 1 .136-.143c.072-.051.113-.089.123-.112.01-.024.003-.072-.02-.145-.022-.071-.027-.123-.014-.156a.418.418 0 0 1 .117-.13.449.449 0 0 0 .134-.172c.111.109.154.195.128.258a.525.525 0 0 1-.12.168.526.526 0 0 0-.098.117c-.008.02-.006.062.008.124.013.063.014.11.001.142a.292.292 0 0 1-.094.107.296.296 0 0 0-.086.088.194.194 0 0 0-.005.11.285.285 0 0 0 .047.104c.024-.145.07-.247.14-.305.075-.063.164-.073.266-.032.073.03.12.11.143.239a.109.109 0 0 0 .079-.035.296.296 0 0 0 .061-.1c.018-.043 0-.124-.055-.24.1-.026.159-.059.175-.098.016-.04.014-.09-.007-.15a.21.21 0 0 0-.129-.132M4.425 5.997c.01-.015.005-.029-.015-.042l-.078-.05.012.089c.001.016.013.024.034.025.022 0 .037-.007.047-.022M3.64 7.206l-.033-.022a.155.155 0 0 0-.029.063c0 .014.01.021.03.022.022 0 .038-.007.047-.022.01-.015.005-.028-.015-.041m.035-.978a.291.291 0 0 1 .143.192c.02.079.001.162-.056.25-.093.142-.185.184-.276.124-.091-.06-.108-.134-.05-.223.04-.061.083-.093.13-.097.03.027.06.02.089-.022.028-.041.03-.07.006-.086-.043-.028-.105-.014-.185.042a.862.862 0 0 0-.223.24c-.09.137-.143.244-.16.322a1.071 1.071 0 0 0-.026.21.364.364 0 0 1 .131-.176c.066-.05.128-.071.188-.065l.167.11a.227.227 0 0 1 .108-.09.3.3 0 0 1 .144-.016c.051.006.098-.022.14-.087a.376.376 0 0 0 .072-.223.514.514 0 0 0-.112-.256c.162.106.26.213.293.321a.326.326 0 0 1-.032.286c-.096.147-.221.182-.375.106-.068-.022-.114-.014-.138.024l.207.135c.025.097.026.164.001.201a.296.296 0 0 1-.23.13.376.376 0 0 1-.253-.045.395.395 0 0 1 .053-.3l.063-.097a.133.133 0 0 0-.094.023c-.055.04-.107.135-.156.287l-.31-.203a.705.705 0 0 1-.046-.315.85.85 0 0 1 .156-.414c.089-.136.2-.23.331-.28a.428.428 0 0 1 .226-.034.526.526 0 0 1-.088-.175c-.03-.105-.03-.182.002-.23.05-.078.13-.14.24-.19.11-.048.188-.057.234-.027l.634.414c.026.018.046.05.059.1a.154.154 0 0 1-.018.128.296.296 0 0 1-.231.13c-.105.011-.182 0-.232-.032-.032-.021-.025-.1.02-.237.047-.137.033-.23-.04-.277-.058-.038-.14-.03-.243.024a.57.57 0 0 0-.221.181c-.03.046-.044.118-.042.217M6.01 4.417c.013-.012.012-.027-.005-.044l-.064-.067a2.581 2.581 0 0 1-.009.09c-.002.015.007.026.028.031.02.006.038.002.05-.01m-.567.5c.02.006.037.002.05-.01.012-.012.01-.027-.005-.044l-.064-.067a2.02 2.02 0 0 1-.01.09c-.002.016.008.026.029.031m-.944.303a.893.893 0 0 1 .225-.303c.113-.106.29-.246.534-.418l.46.486c.003.1-.012.166-.044.196a.296.296 0 0 1-.256.073.376.376 0 0 1-.235-.102.955.955 0 0 0 .185-.375 4.25 4.25 0 0 0-.482.37.734.734 0 0 0-.199.277c-.03.087-.031.147-.002.177.048.05.105.05.172 0a.335.335 0 0 1-.024-.21.307.307 0 0 1 .085-.153.215.215 0 0 1 .159-.065c.057.002.096.029.117.08.02.053.018.091-.009.116a.117.117 0 0 1-.088.036.11.11 0 0 0-.084.033c-.025.023-.03.05-.017.079.021.036.06.052.117.045a.186.186 0 0 1-.056.203c-.06.057-.12.083-.178.078a.25.25 0 0 1-.161-.085l-.236-.25a.445.445 0 0 1 .017-.288m.893-1.284c.156-.057.253-.066.291-.025l.52.55c.022.022.034.059.035.11a.154.154 0 0 1-.047.12.296.296 0 0 1-.255.073c-.104-.013-.177-.041-.219-.085-.025-.027 0-.102.076-.225.076-.123.085-.216.025-.28-.063-.065-.189-.059-.378.02-.19.078-.306.138-.35.18a.458.458 0 0 0-.11.194.44.44 0 0 1-.098.184.798.798 0 0 1-.234.125.879.879 0 0 0-.212.102.546.546 0 0 0-.09.145.254.254 0 0 1 .208-.058l-.066.133a.385.385 0 0 0-.184.122l-.112-.119c.1-.27.186-.44.255-.506a.758.758 0 0 1 .252-.139.848.848 0 0 0 .203-.093.528.528 0 0 0 .078-.173.49.49 0 0 1 .104-.198c.05-.047.153-.099.308-.157M6.652 4c.014-.01.015-.025.001-.044l-.052-.077-.023.087c-.005.016.003.028.022.036.02.008.037.007.052-.002m.21.112c-.013.099-.037.161-.074.186a.296.296 0 0 1-.263.033.376.376 0 0 1-.217-.138.955.955 0 0 0 .24-.342l.003-.002a.251.251 0 0 0-.08.007c-.066.015-.15.084-.253.206l-.26-.376c-.023-.034-.02-.093.01-.177.03-.085.052-.133.069-.144a.359.359 0 0 1 .134-.027.357.357 0 0 0 .173-.053c.045.145.048.23.01.258a.299.299 0 0 1-.124.051.155.155 0 0 0-.1.054c-.023.03-.023.075 0 .137a.412.412 0 0 1 .213-.15c.08-.022.146-.018.199.01zM8.277 3.053c.106.237.09.385-.047.447-.143.064-.282-.02-.416-.25l-.218-.488c-.022-.048-.021-.111.002-.188.023-.078.065-.13.126-.157.03-.014.078-.013.143.001a.265.265 0 0 0 .168-.01.302.302 0 0 1-.002.15.152.152 0 0 1-.076.1.155.155 0 0 1-.107.017.141.141 0 0 0-.09.005c-.025.012-.04.036-.045.073a.206.206 0 0 0 .02.113l.094.213c.024.054.06.101.11.142.048.04.11.04.183-.002.073-.041.097-.09.07-.149a.063.063 0 0 0-.04-.037c-.02-.005-.032.003-.04.024-.006.02-.029.04-.068.057-.072.033-.128.006-.166-.08-.052-.116-.026-.197.077-.243a.178.178 0 0 1 .095-.01.175.175 0 0 1 .104.055.849.849 0 0 1 .123.217M9.631 2.658c.017-.006.022-.02.015-.042l-.028-.089a2.308 2.308 0 0 1-.048.077c-.008.013-.005.027.012.04.016.015.033.019.05.014m.168.169c-.042.09-.084.143-.127.156a.295.295 0 0 1-.26-.046.376.376 0 0 1-.167-.195.953.953 0 0 0 .33-.257h.004a.25.25 0 0 0-.08-.018c-.067-.005-.168.036-.302.123l-.136-.437c-.013-.038.008-.094.06-.166.054-.072.09-.111.11-.117a.358.358 0 0 1 .135.014.355.355 0 0 0 .181 0c0 .152-.022.235-.067.25a.3.3 0 0 1-.133.012.155.155 0 0 0-.11.022c-.032.021-.045.064-.042.13a.413.413 0 0 1 .249-.08c.082.003.144.026.186.07zm-.81-.22a.31.31 0 0 0 .188.004.802.802 0 0 0 .154-.08.224.224 0 0 1-.065.177c-.048.047-.134.082-.258.104a.291.291 0 0 0-.018-.205m-.08.276c.017-.005.022-.019.015-.041l-.028-.089a2.338 2.338 0 0 1-.048.077c-.009.013-.005.027.011.04.017.014.033.019.05.013m.169.17c-.042.09-.084.143-.127.156a.296.296 0 0 1-.261-.047.376.376 0 0 1-.166-.195.953.953 0 0 0 .33-.256l.004-.001a.247.247 0 0 0-.08-.017c-.067-.005-.168.036-.302.122L8.34 2.38c-.012-.039.009-.094.061-.166.054-.073.09-.112.109-.118a.357.357 0 0 1 .136.015.359.359 0 0 0 .181 0c0 .151-.022.235-.067.249a.3.3 0 0 1-.133.013.155.155 0 0 0-.111.022c-.03.02-.045.064-.042.13a.412.412 0 0 1 .25-.08c.081.003.143.026.185.069zM10.241 2.013a.75.75 0 0 1 .184-.044.827.827 0 0 1 .34.018.48.48 0 0 1 .25.202l-.104.2c.04.072.132.099.278.08a.66.66 0 0 0 .266-.08.164.164 0 0 0 .083-.171c-.004-.03-.041-.052-.112-.069-.071-.016-.18.006-.328.067l-.056-.454c-.005-.04.025-.09.09-.152s.108-.094.127-.096c.02-.003.067.01.14.037a.402.402 0 0 0 .185.032c-.026.149-.062.227-.11.233a.297.297 0 0 1-.132-.012.174.174 0 0 0-.122.004c-.04.015-.063.056-.072.12.136-.059.251-.064.346-.014.095.05.15.14.166.272a.431.431 0 0 1-.116.36.637.637 0 0 1-.407.187.635.635 0 0 1-.34-.041c-.097-.043-.133-.087-.107-.13l.133-.196a.385.385 0 0 0-.189-.126.556.556 0 0 0-.231-.02c-.215.027-.314.104-.298.231.014.116.076.168.186.154.11-.014.167-.04.174-.08.007-.04-.005-.055-.034-.047-.013.043-.059.069-.136.078-.078.01-.122-.029-.133-.116-.01-.087.046-.138.17-.153.125-.016.195.05.212.198.025.211-.05.328-.222.349a.264.264 0 0 1-.22-.076.366.366 0 0 1-.115-.231c-.026-.21.023-.36.147-.454-.086-.054-.154-.077-.206-.07a.52.52 0 0 1 .172-.265.5.5 0 0 1 .156-.1.575.575 0 0 1 .167.034.56.56 0 0 0 .222.027c-.03.144-.076.22-.138.229a.431.431 0 0 1-.173-.01.457.457 0 0 0-.129-.022.128.128 0 0 0-.091.047c.036.003.078.027.127.07M11.449 2.988a.13.13 0 0 1-.084-.026c-.022-.017-.034-.048-.034-.093s.012-.077.04-.097a.201.201 0 0 1 .117-.03c.06 0 .105.017.133.053a.193.193 0 0 1 .044.116l.002.165c0 .051-.01.095-.032.13-.022.034-.066.052-.133.053-.111.001-.173-.085-.183-.258.043.035.1.05.169.046.07-.005.104-.032.103-.084 0-.037-.012-.055-.034-.055 0 .026-.01.046-.03.06a.14.14 0 0 1-.078.02M10.891 1.214c.067-.012.137-.019.209-.02.109-.002.234.01.374.036-.013-.039-.062-.075-.147-.108a.618.618 0 0 0-.23-.048.26.26 0 0 0-.147.043c-.04.027-.06.06-.059.097m.724-.387c.07-.001.105.04.107.122 0 .08-.026.194-.082.341 0 .006.002.01.003.015 0 .027-.047.04-.143.042a2.436 2.436 0 0 0-.398-.033.98.98 0 0 0-.27.043c-.067.001-.116-.015-.148-.05-.032-.034-.048-.068-.049-.1-.001-.084.038-.16.117-.227a.522.522 0 0 1 .34-.105.604.604 0 0 1 .317.115.598.598 0 0 1 .136.118c.035-.002.052-.029.052-.08 0-.028-.029-.054-.086-.08-.001-.08.033-.12.103-.121zM12.217 1.772a1.248 1.248 0 0 0-.138.082.302.302 0 0 1 .222.04c.06.04.086.116.077.227-.005.062-.047.118-.126.167-.101.063-.14.104-.12.123.022.019.045.012.069-.022.024-.033.05-.049.08-.046.08.006.117.052.11.137-.012.143-.094.208-.247.195-.154-.012-.224-.093-.212-.241a.261.261 0 0 1 .055-.137c.033-.043.105-.08.218-.11-.004-.06-.037-.092-.099-.097a.214.214 0 0 0-.149.034l.03-.354a.703.703 0 0 1 .185-.196.458.458 0 0 1 .317-.07c.133.011.243.05.33.114a.5.5 0 0 1 .166.187l.037.09-.258.349a.332.332 0 0 0 .121.18.478.478 0 0 0 .245.076c.114.01.207.001.277-.025a.163.163 0 0 0 .116-.15c.002-.03-.03-.06-.096-.09-.066-.031-.178-.032-.334-.002l.037-.455c.003-.04.043-.084.12-.131.075-.048.124-.07.144-.069.02.002.063.024.129.065a.402.402 0 0 0 .175.069c-.056.14-.108.21-.155.206a.302.302 0 0 1-.128-.038.174.174 0 0 0-.12-.022c-.041.007-.073.042-.095.104.146-.03.26-.012.342.056.083.068.118.168.108.3a.432.432 0 0 1-.187.329c-.113.081-.27.114-.471.098a.682.682 0 0 1-.332-.11.495.495 0 0 1-.195-.264l.298-.346a.57.57 0 0 0-.148-.196.367.367 0 0 0-.207-.083.361.361 0 0 0-.19.026M13.098 1.21c.068.002.138.01.208.023.107.021.227.058.36.112-.005-.04-.046-.086-.123-.135a.615.615 0 0 0-.215-.094.26.26 0 0 0-.153.011c-.044.02-.07.047-.077.083m.788-.231c.068.013.095.06.08.141a1.017 1.017 0 0 1-.15.318v.015c-.005.026-.055.03-.149.012a2.44 2.44 0 0 0-.383-.114.989.989 0 0 0-.274-.012c-.065-.013-.109-.04-.133-.08-.025-.04-.034-.076-.028-.108.016-.082.07-.148.16-.198a.522.522 0 0 1 .355-.033.602.602 0 0 1 .287.177.591.591 0 0 1 .109.143c.034.005.057-.017.067-.069.005-.026-.017-.058-.068-.095.015-.078.057-.11.126-.097zM15.682 3.06c.016.006.028-.003.035-.025l.028-.09c-.04.019-.068.03-.083.037-.015.006-.02.019-.014.04.006.02.017.033.034.038m-.582-.735a.384.384 0 0 1-.24.011.572.572 0 0 1-.243-.154.537.537 0 0 0-.219-.147.293.293 0 0 0-.259.035c.137.01.24.046.31.111.072.065.09.15.057.255-.023.075-.098.13-.225.162a.11.11 0 0 0 .041.076c.026.021.06.04.105.053.044.014.123-.012.235-.076.034.099.071.154.112.167.04.012.096.008.167-.014.07-.022.153-.086.249-.192-.062.2-.14.337-.233.41-.093.073-.18.097-.26.072-.08-.024-.158-.095-.235-.212-.123.055-.223.07-.298.047a.35.35 0 0 1-.195-.175.433.433 0 0 1-.042-.316c.128.04.23.06.306.06.076 0 .12-.018.13-.052.01-.034-.029-.066-.118-.097a.604.604 0 0 0-.283-.025l.122-.396a.522.522 0 0 1 .243-.118.525.525 0 0 1 .275.004c.08.025.165.093.253.204.087.11.15.172.189.183.033.01.056-.005.068-.046.013-.04-.017-.09-.089-.15-.073-.06-.088-.112-.045-.155.043-.044.098-.055.165-.035a.32.32 0 0 1 .165.118.208.208 0 0 1 .03.197.221.221 0 0 1-.06.096c.032-.017.066-.033.1-.048.108-.05.19-.065.246-.048.088.028.17.087.248.18.077.092.107.164.09.217l-.224.723c-.009.03-.035.058-.078.084a.153.153 0 0 1-.129.018.296.296 0 0 1-.188-.186c-.04-.098-.051-.175-.034-.232.012-.036.09-.051.234-.045.144.006.23-.032.255-.115.02-.067-.007-.149-.084-.246a.499.499 0 0 0-.23-.182 1.041 1.041 0 0 0-.384-.021M17.84 4.295c0 .021.006.037.02.047.015.01.03.005.043-.014l.052-.077a1.959 1.959 0 0 1-.09.01c-.016.001-.024.012-.025.034m-.517-.876a.328.328 0 0 0-.136-.125l.11-.162c.218-.005.347.006.388.034.04.028.08.083.116.166.036.083.065.131.087.146.022.015.07.02.148.014.076-.005.13.002.16.023.028.02.064.068.105.144.042.077.09.134.145.171-.131.085-.226.107-.285.067a.487.487 0 0 1-.138-.162.497.497 0 0 0-.092-.13c-.02-.014-.063-.019-.131-.015-.069.003-.117-.005-.146-.025a.392.392 0 0 1-.1-.15.438.438 0 0 0-.084-.138.22.22 0 0 0-.094-.027c.046.037.08.107.104.213zm-.036.04c.14.002.274.047.402.134.127.087.301.232.52.433l-.377.553c-.097.024-.164.023-.201-.003a.295.295 0 0 1-.125-.233.375.375 0 0 1 .05-.252c.102.057.238.09.406.1a4.24 4.24 0 0 0-.45-.382.414.414 0 0 0-.197-.079c.13.138.159.26.087.365-.101.147-.239.162-.412.043-.173-.118-.217-.24-.13-.364.071-.106.164-.12.278-.044.067.045.099.097.095.154-.004.058-.038.084-.102.08-.063-.005-.104-.04-.123-.105-.018-.065-.037-.095-.055-.09-.018.006-.02.031-.008.075.013.044.061.092.146.143.067.038.124.024.17-.044.034-.05.024-.109-.03-.179a.593.593 0 0 0-.246-.174c.061-.09.162-.134.302-.132M18.029 2.984c.059.033.117.073.173.118.085.068.173.157.265.267.014-.038 0-.097-.045-.177a.621.621 0 0 0-.146-.184.26.26 0 0 0-.14-.061c-.048-.005-.084.008-.107.037m.804.165c.054.044.055.098.004.162-.05.063-.144.133-.282.21a.253.253 0 0 0-.006.014c-.017.02-.063.001-.137-.059a2.45 2.45 0 0 0-.285-.281.983.983 0 0 0-.236-.14c-.051-.04-.078-.085-.08-.132-.004-.047.005-.083.026-.109.052-.064.13-.098.234-.1a.523.523 0 0 1 .329.138c.07.056.126.153.17.291a.6.6 0 0 1 .03.177c.027.021.058.012.09-.028.018-.021.013-.06-.015-.116.05-.062.103-.071.157-.027zM18.986 5.355c.013.012.027.01.043-.007l.064-.068a2.106 2.106 0 0 1-.09-.004c-.016-.002-.026.008-.03.03-.004.02 0 .037.013.049m-.066.23c-.1.008-.166-.004-.198-.035a.296.296 0 0 1-.086-.25.375.375 0 0 1 .089-.24.95.95 0 0 0 .384.163l.003.003a.254.254 0 0 0-.023-.078c-.03-.061-.114-.13-.255-.204l.315-.332c.027-.03.086-.039.174-.028.09.011.141.024.156.037a.356.356 0 0 1 .054.126c.02.07.05.123.088.158-.133.074-.216.095-.25.063a.301.301 0 0 1-.076-.11.155.155 0 0 0-.074-.086c-.033-.016-.078-.007-.134.027.091.046.155.106.192.179.037.073.047.138.03.196zm-.202-.814c.02.078.049.133.087.166a.802.802 0 0 0 .146.094.224.224 0 0 1-.186.03c-.065-.018-.137-.076-.217-.174a.29.29 0 0 0 .17-.116m-.28.065c.013.012.027.01.043-.007l.064-.068a2.371 2.371 0 0 1-.09-.004c-.016-.001-.026.008-.03.03-.004.02 0 .037.013.049m-.066.23c-.1.008-.166-.004-.198-.034a.296.296 0 0 1-.086-.251.375.375 0 0 1 .089-.24c.091.072.22.126.384.163l.003.003a.245.245 0 0 0-.024-.078c-.028-.061-.113-.13-.254-.204l.314-.332c.028-.03.086-.039.175-.028.09.011.141.024.156.037a.36.36 0 0 1 .054.126c.02.07.05.123.088.158-.133.075-.216.096-.25.063a.3.3 0 0 1-.076-.11.155.155 0 0 0-.074-.086c-.033-.016-.078-.007-.134.027.091.046.155.106.192.179.037.073.047.138.03.196zM19.369 4.043c.053.042.103.09.152.144.073.08.146.183.22.305.02-.035.02-.088.003-.16a.514.514 0 0 0-.124-.213.293.293 0 0 0-.14-.096c-.047-.012-.084-.005-.111.02m.398-.059a.509.509 0 0 1 .136.33.576.576 0 0 1-.108.355c-.02.018-.062-.009-.126-.08a2.436 2.436 0 0 0-.237-.322.978.978 0 0 0-.211-.175c-.044-.049-.064-.097-.059-.143.005-.047.019-.082.043-.104.062-.055.145-.076.248-.061.103.015.207.082.314.2M19.861 5.458a1.244 1.244 0 0 0-.152-.052.302.302 0 0 1 .115.195c.009.072-.031.141-.12.206-.051.037-.12.042-.21.014-.113-.035-.17-.038-.171-.01 0 .029.02.041.061.038.041-.004.07.007.088.03.047.065.037.123-.032.173-.115.085-.219.065-.31-.06-.09-.123-.076-.23.044-.317a.261.261 0 0 1 .14-.048c.054-.004.129.027.225.093.043-.043.046-.089.01-.138a.213.213 0 0 0-.124-.09l.287-.21a.703.703 0 0 1 .27.012.46.46 0 0 1 .26.194.616.616 0 0 1 .129.323.5.5 0 0 1-.032.248l-.043.087-.433.034a.33.33 0 0 0-.058.21c.006.07.04.148.103.234a.66.66 0 0 0 .201.193c.066.037.13.033.19-.01.023-.018.025-.062.005-.132s-.093-.155-.218-.254l.369-.27c.032-.024.091-.022.177.005.085.026.134.048.146.064a.421.421 0 0 1 .035.14.403.403 0 0 0 .063.177c-.143.05-.229.056-.257.018a.296.296 0 0 1-.055-.121.175.175 0 0 0-.062-.105c-.033-.027-.08-.028-.141-.004.118.09.179.188.182.295.002.107-.05.2-.157.278a.431.431 0 0 1-.37.074c-.137-.032-.264-.13-.383-.292a.684.684 0 0 1-.134-.323.494.494 0 0 1 .071-.32l.458-.001a.57.57 0 0 0 .05-.24.367.367 0 0 0-.071-.212.361.361 0 0 0-.146-.126M20.982 7.297a.745.745 0 0 1 .098.162.826.826 0 0 1 .085.33.478.478 0 0 1-.117.299l-.222-.039c-.057.059-.055.155.006.289.048.104.1.18.158.23.057.049.12.058.188.027.026-.012.037-.055.031-.128-.005-.072-.06-.17-.162-.292l.416-.19c.036-.017.094-.004.172.04.078.043.122.074.13.092.008.019.01.067.007.144a.398.398 0 0 0 .025.187c-.15.02-.235.008-.255-.034a.3.3 0 0 1-.03-.13.176.176 0 0 0-.039-.116c-.027-.032-.072-.043-.137-.032.098.112.137.22.118.326-.019.105-.088.185-.209.24a.431.431 0 0 1-.378-.002.637.637 0 0 1-.302-.332.635.635 0 0 1-.063-.336c.012-.107.043-.154.093-.142l.226.068a.385.385 0 0 0 .063-.218.552.552 0 0 0-.05-.226c-.09-.197-.194-.269-.31-.215-.107.048-.138.123-.091.224.046.1.089.147.129.142.04-.006.05-.022.033-.047-.044 0-.082-.036-.115-.106-.032-.071-.009-.125.071-.162.08-.036.146.003.198.117.052.113.01.2-.126.26-.194.088-.327.052-.4-.106a.263.263 0 0 1 .007-.232c.038-.08.1-.14.185-.18.192-.087.351-.086.478.003.026-.097.027-.17.004-.216a.52.52 0 0 1 .305.083.5.5 0 0 1 .142.119c.01.022.016.079.018.17a.56.56 0 0 0 .041.22c-.146.014-.233-.007-.26-.064a.427.427 0 0 1-.042-.168.453.453 0 0 0-.019-.129.127.127 0 0 0-.072-.073c.008.035-.002.083-.028.143M20.418 8.737a.13.13 0 0 1 0-.087c.01-.027.036-.047.079-.061.042-.014.077-.01.103.01.027.019.049.053.065.102.018.058.015.106-.011.143a.194.194 0 0 1-.098.077l-.157.05a.233.233 0 0 1-.133.009c-.04-.01-.07-.048-.09-.111-.035-.107.029-.19.191-.252a.235.235 0 0 0 .007.175c.024.065.061.09.11.074.035-.012.049-.028.042-.05a.068.068 0 0 1-.065-.01.14.14 0 0 1-.043-.069M21.939 7.674c.031.06.059.124.082.192.034.104.06.226.079.368.033-.024.052-.082.057-.173a.614.614 0 0 0-.023-.233.262.262 0 0 0-.085-.128c-.039-.03-.075-.038-.11-.026m.588.573c.022.066-.006.112-.084.138a1.007 1.007 0 0 1-.35.025l-.014.008c-.025.009-.053-.033-.083-.123a2.446 2.446 0 0 0-.089-.39.988.988 0 0 0-.123-.245c-.021-.062-.02-.114.003-.155.023-.041.05-.067.081-.077.08-.027.163-.013.251.042a.521.521 0 0 1 .203.293.602.602 0 0 1-.013.337.6.6 0 0 1-.071.164c.012.033.043.042.092.026.026-.009.042-.044.05-.106.075-.025.124-.005.146.062z" fill="#214497"/><path d="M5.09 19.303a5.898 5.898 0 0 0 .177-.433l-.016-.015a8.09 8.09 0 0 0-.428.191 3.054 3.054 0 0 1 .266.257m-.182-.423l.074-.033c.2-.088.337-.156.41-.204.023-.015.04-.02.054-.017a.14.14 0 0 1 .054.038c.016.015.025.03.029.043a.112.112 0 0 1-.006.057 5.394 5.394 0 0 1-.103.293 11.543 11.543 0 0 1-.203.505c-.07.163-.097.265-.084.306a.154.154 0 0 0 .013.028c.018.033.02.058.003.074-.018.02-.043.02-.074.003a.893.893 0 0 1-.156-.131.866.866 0 0 1-.134-.15c-.017-.03-.016-.056.002-.074.015-.015.042-.014.081.004l.013.006c.015.007.028.01.038.009a.05.05 0 0 0 .029-.017.56.56 0 0 0 .08-.147.125.125 0 0 0 .007-.03.024.024 0 0 0-.004-.012.412.412 0 0 0-.044-.052 2.943 2.943 0 0 0-.09-.092l-.03-.03a1.67 1.67 0 0 0-.127-.115c-.023-.017-.04-.025-.052-.025a.234.234 0 0 0-.077.024.237.237 0 0 0-.07.045.074.074 0 0 0-.022.04c-.003.016 0 .032.008.049a.312.312 0 0 0 .013.028c.017.034.017.059.001.075-.018.019-.041.022-.069.009a.641.641 0 0 1-.133-.11.65.65 0 0 1-.114-.131c-.014-.028-.011-.05.007-.07.015-.015.04-.016.073-.002.015.006.026.01.035.012.049.011.12-.005.216-.049.02-.01.037-.017.05-.022zM6.656 19.684l.018.006a.344.344 0 0 1 .061.027.054.054 0 0 1 .018.025c.004.01.005.022.003.033a.459.459 0 0 1-.03.116.45.45 0 0 1-.056.103.091.091 0 0 1-.043.035c-.014.004-.028.001-.042-.01-.02-.015-.032-.055-.036-.121a.985.985 0 0 0-.007-.082.29.29 0 0 0-.047-.126.434.434 0 0 0-.105-.11.326.326 0 0 0-.278-.067.468.468 0 0 0-.264.192.674.674 0 0 0-.152.407c0 .135.05.24.15.315.04.03.083.051.128.065a.3.3 0 0 0 .189-.003c.04-.011.067-.012.08-.001.013.009.018.022.016.04a.125.125 0 0 1-.027.058.286.286 0 0 1-.093.087c-.03.015-.056.015-.076 0a.032.032 0 0 1-.006-.005l-.008-.01a.692.692 0 0 1-.31-.128.688.688 0 0 1-.168-.178.596.596 0 0 1-.08-.48.717.717 0 0 1 .124-.251.694.694 0 0 1 .161-.158.572.572 0 0 1 .45-.09.625.625 0 0 1 .32.184c.027.028.064.07.11.127M6.85 21.063a.294.294 0 0 0 .12.044.22.22 0 0 0 .117-.035.436.436 0 0 0 .05-.03c.039-.028.068-.036.089-.024.012.007.018.019.018.035a.127.127 0 0 1-.02.058.634.634 0 0 1-.15.175.15.15 0 0 1-.05.03.053.053 0 0 1-.041-.007.623.623 0 0 0-.106-.085l-.433-.252a.57.57 0 0 1-.126-.087c-.014-.017-.015-.035-.005-.053.013-.022.039-.03.076-.024a.15.15 0 0 0 .04.003c.016-.002.04-.03.077-.082.036-.052.1-.16.195-.323.068-.116.12-.21.157-.282a.472.472 0 0 0 .055-.126c-.001-.011-.011-.03-.031-.055s-.024-.048-.013-.068c.012-.02.03-.026.057-.02a.818.818 0 0 1 .171.084.836.836 0 0 1 .16.107c.017.02.02.04.01.06-.013.02-.037.026-.075.02a.167.167 0 0 0-.043-.003c-.013.002-.036.027-.07.074-.033.047-.079.122-.138.223-.072.125-.13.229-.175.31a1.21 1.21 0 0 0-.076.154.08.08 0 0 0 .013.075.457.457 0 0 0 .12.088zM7.447 21.519a.574.574 0 0 1-.136-.073c-.016-.016-.02-.033-.01-.053.01-.023.034-.034.073-.032.018.001.032 0 .04-.001.015-.003.04-.037.073-.1a5.98 5.98 0 0 0 .155-.331c.05-.112.09-.21.12-.29a.614.614 0 0 0 .043-.141.15.15 0 0 0-.037-.05c-.023-.024-.029-.047-.02-.068.01-.02.027-.029.055-.026a.843.843 0 0 1 .174.064l.478.212c.025.01.052.02.08.025l.045.01a.043.043 0 0 1 .018.013.039.039 0 0 1 .008.02.36.36 0 0 1-.006.095.408.408 0 0 1-.026.097.103.103 0 0 1-.037.048.045.045 0 0 1-.044.003c-.018-.008-.03-.034-.036-.08a1.216 1.216 0 0 0-.007-.047.113.113 0 0 0-.035-.06.283.283 0 0 0-.081-.05l-.107-.047a.642.642 0 0 0-.118-.043c-.028-.006-.05-.004-.064.004-.013.007-.03.026-.049.058a1.546 1.546 0 0 0-.072.147l-.027.063c-.012.025-.016.041-.015.05.002.007.01.014.025.02l.14.062c.041.019.073.026.095.021.022-.004.042-.022.061-.051a.509.509 0 0 1 .011-.018c.03-.048.059-.066.085-.054.023.01.033.03.029.063a.951.951 0 0 1-.073.198.938.938 0 0 1-.097.185c-.02.024-.043.031-.065.021-.027-.012-.032-.045-.017-.1a.294.294 0 0 0 .005-.02c.01-.033.009-.06-.003-.079-.011-.02-.038-.039-.08-.057l-.137-.061c-.015-.006-.026-.006-.035 0a.171.171 0 0 0-.035.06l-.033.073a2.44 2.44 0 0 0-.062.152.238.238 0 0 0-.018.076c0 .02.01.04.034.058.023.02.063.041.12.066l.1.045a.323.323 0 0 0 .134.034.194.194 0 0 0 .109-.044.362.362 0 0 0 .046-.041c.033-.033.058-.045.076-.037.013.006.02.017.023.033a.11.11 0 0 1-.012.058.526.526 0 0 1-.055.092.92.92 0 0 1-.084.1.173.173 0 0 1-.045.032c-.013.006-.025.007-.035.002a.411.411 0 0 0-.114-.073zM9.467 21.635c.049-.161.05-.295.005-.401-.046-.107-.136-.18-.272-.222a.33.33 0 0 0-.106-.018c-.027.001-.047.01-.058.025a.584.584 0 0 0-.055.12 6.758 6.758 0 0 0-.169.562.773.773 0 0 0-.03.158c0 .018.017.038.05.06a.435.435 0 0 0 .123.057c.125.038.23.029.316-.028.085-.057.15-.16.196-.313m-.927.342a.424.424 0 0 1-.127-.053.05.05 0 0 1-.016-.057c.006-.02.025-.032.057-.035.032-.003.052-.007.06-.013a.508.508 0 0 0 .06-.135 6.265 6.265 0 0 0 .186-.618.589.589 0 0 0 .025-.145c-.002-.01-.017-.025-.042-.045-.025-.02-.035-.042-.028-.064.006-.022.023-.034.048-.036a.453.453 0 0 1 .136.027l.07.022a3.43 3.43 0 0 0 .284.081c.204.062.345.161.424.3.079.138.089.304.03.497-.056.189-.156.315-.298.378-.142.064-.322.062-.539-.003a2.749 2.749 0 0 1-.092-.03 3.048 3.048 0 0 0-.238-.071M10.496 21.94a6.212 6.212 0 0 0-.102-.458l-.021-.003a8.128 8.128 0 0 0-.242.402 3.59 3.59 0 0 1 .277.04l.088.019m-.392-.244l.043-.069a3.41 3.41 0 0 0 .22-.402c.01-.025.022-.04.034-.045a.14.14 0 0 1 .067 0c.02.004.037.01.048.02.01.01.02.026.027.05.022.068.05.168.083.299a12.216 12.216 0 0 1 .122.531c.036.173.07.273.105.299.005.004.014.01.027.016.034.016.049.036.045.059-.004.026-.024.04-.06.045a.886.886 0 0 1-.202-.02.868.868 0 0 1-.196-.047c-.031-.015-.045-.035-.04-.061.003-.02.026-.035.069-.043a.155.155 0 0 0 .013-.002.072.072 0 0 0 .036-.014.05.05 0 0 0 .015-.03.562.562 0 0 0-.018-.166.12.12 0 0 0-.011-.03.025.025 0 0 0-.011-.008.41.41 0 0 0-.065-.018 2.71 2.71 0 0 0-.128-.023l-.041-.007a1.725 1.725 0 0 0-.17-.023c-.028 0-.047.002-.057.01a.234.234 0 0 0-.05.064.24.24 0 0 0-.03.076.077.077 0 0 0 .004.046.084.084 0 0 0 .034.035.34.34 0 0 0 .027.016c.033.018.048.038.044.06-.004.026-.022.042-.052.047a.638.638 0 0 1-.172-.014.64.64 0 0 1-.169-.043c-.026-.014-.037-.034-.033-.06.004-.022.023-.036.059-.044a.246.246 0 0 0 .034-.01c.047-.02.097-.074.15-.164l.028-.047zM12.478 21.977l.012.181c.006.08.011.135.017.166a.193.193 0 0 0 .022.069c.007.012.025.02.055.025a.533.533 0 0 0 .115.001.333.333 0 0 0 .208-.073c.046-.042.067-.1.061-.174-.005-.08-.037-.138-.094-.172a.46.46 0 0 0-.261-.04 1.27 1.27 0 0 0-.135.017m-.009-.125a.988.988 0 0 0 .103-.002c.11-.007.187-.03.232-.066.045-.037.065-.093.06-.169-.005-.072-.031-.125-.078-.157-.048-.033-.118-.046-.21-.04a.33.33 0 0 0-.077.014c-.02.006-.03.014-.035.023a.3.3 0 0 0-.01.103c0 .053.004.134.012.243zm.37.013c.115.003.204.03.268.08.064.051.1.123.106.217a.296.296 0 0 1-.096.256.505.505 0 0 1-.31.11c-.036.002-.09.004-.164.005a3.25 3.25 0 0 0-.345.023c-.039.003-.069 0-.09-.01a.052.052 0 0 1-.033-.045c-.002-.021.012-.039.041-.053.03-.014.047-.025.052-.034a.466.466 0 0 0 .009-.144 6.58 6.58 0 0 0-.017-.334 5.761 5.761 0 0 0-.029-.32.463.463 0 0 0-.028-.138.15.15 0 0 0-.056-.027c-.03-.01-.047-.026-.048-.047a.05.05 0 0 1 .022-.05.157.157 0 0 1 .077-.02 7.561 7.561 0 0 1 .188-.011 4.8 4.8 0 0 0 .17-.016 4.34 4.34 0 0 1 .138-.014.45.45 0 0 1 .286.058.262.262 0 0 1 .113.212.259.259 0 0 1-.057.192.363.363 0 0 1-.196.11M13.915 21.963a.7.7 0 0 0-.124.007.223.223 0 0 0-.133.066.135.135 0 0 0-.03.12.14.14 0 0 0 .062.1.17.17 0 0 0 .126.018c.054-.01.091-.029.11-.057.02-.029.023-.072.013-.13zm.222.131a.237.237 0 0 0 .021.07c.008.014.018.022.03.024l.027.002c.037.003.058.014.06.033.006.027-.009.055-.042.083a.26.26 0 0 1-.125.056c-.025.005-.054-.005-.087-.03a.436.436 0 0 0-.052-.035.116.116 0 0 0-.033.025.39.39 0 0 1-.196.107.281.281 0 0 1-.211-.035.248.248 0 0 1-.11-.173.254.254 0 0 1 .06-.227.445.445 0 0 1 .258-.125.8.8 0 0 1 .159-.013l-.015-.09a.18.18 0 0 0-.053-.107.113.113 0 0 0-.099-.023.167.167 0 0 0-.073.032.237.237 0 0 0-.058.068.566.566 0 0 0-.014.025c-.026.049-.058.077-.096.084a.069.069 0 0 1-.057-.012.083.083 0 0 1-.03-.054c-.01-.052.015-.103.073-.15a.523.523 0 0 1 .24-.1.47.47 0 0 1 .165-.004.233.233 0 0 1 .117.052c.02.019.037.044.05.078a.99.99 0 0 1 .042.17zM14.586 21.437l.012-.02a.29.29 0 0 1 .169-.14.28.28 0 0 1 .317.128.898.898 0 0 1 .072.189l.032.11.015.055.012.046a.294.294 0 0 0 .032.08c.01.014.023.023.04.027a.214.214 0 0 0 .023.003c.03.002.047.012.052.03.007.024 0 .044-.023.06a.656.656 0 0 1-.16.06.654.654 0 0 1-.157.032c-.028 0-.046-.011-.052-.032-.006-.021.003-.04.028-.058a.216.216 0 0 0 .027-.023c.01-.01.015-.028.013-.053a.688.688 0 0 0-.028-.127c-.05-.174-.093-.28-.128-.317-.035-.038-.081-.048-.139-.032a.155.155 0 0 0-.076.051.178.178 0 0 0-.04.088.301.301 0 0 0 .003.106c.008.044.027.12.058.228a.558.558 0 0 0 .038.104c.009.016.02.026.034.029.008.002.02.003.034.004.031.002.05.014.056.035.005.02-.004.04-.028.056a.568.568 0 0 1-.143.055.665.665 0 0 1-.17.035c-.029-.001-.047-.014-.054-.038-.005-.018.004-.036.028-.054a.245.245 0 0 0 .018-.015.068.068 0 0 0 .019-.048c0-.02-.005-.05-.017-.092l-.017-.055a3.845 3.845 0 0 1-.02-.066l-.024-.084a1.371 1.371 0 0 0-.055-.167c-.012-.025-.024-.038-.037-.04a.26.26 0 0 0-.042-.004c-.036 0-.057-.01-.062-.029a.045.045 0 0 1 .006-.037.17.17 0 0 1 .042-.043.971.971 0 0 1 .107-.072.406.406 0 0 1 .08-.039c.016-.004.028-.003.037.003.01.006.016.018.022.037l.015.054.004.007c.001.001.003.002.006.001a.015.015 0 0 0 .004-.002.015.015 0 0 0 .003-.003zM15.532 21.098l.081.2c.008.02.014.032.019.037.005.005.01.006.015.004.006-.002.014-.012.026-.031a1.199 1.199 0 0 0 .086-.18c.007-.022.009-.036.006-.044-.002-.005-.015-.008-.04-.01-.023-.003-.038-.012-.045-.028-.01-.024-.002-.046.022-.066a.6.6 0 0 1 .148-.077.334.334 0 0 1 .115-.03c.028 0 .046.01.054.03.01.025-.003.05-.037.076a.352.352 0 0 0-.07.062.696.696 0 0 0-.062.123l-.007.019a.316.316 0 0 0-.016.04c-.002.009-.002.015 0 .018a.44.44 0 0 0 .111.078l.013.008c.078.045.145.082.201.11a.705.705 0 0 0 .124.053.306.306 0 0 0 .082 0c.038-.002.062.007.07.028.01.023.004.044-.017.064a.59.59 0 0 1-.203.09c-.026.001-.078-.02-.154-.065a1.989 1.989 0 0 0-.05-.03l-.02-.011c-.197-.113-.3-.167-.31-.163-.007.002-.01.007-.01.013 0 .006.004.018.01.035l.015.034c.032.079.056.133.072.164.016.03.03.048.04.054a.155.155 0 0 0 .054.005c.029 0 .047.01.055.03.008.02.001.04-.022.058a.594.594 0 0 1-.137.07.65.65 0 0 1-.164.052c-.03.002-.048-.01-.058-.032-.007-.018 0-.037.022-.057a.289.289 0 0 0 .017-.016c.011-.014.014-.035.01-.063a.693.693 0 0 0-.044-.134l-.04-.098-.051-.122-.04-.097a6.034 6.034 0 0 0-.124-.293c-.022-.046-.04-.073-.052-.079-.008-.004-.025-.004-.053-.002l-.028.003c-.017.002-.03 0-.036-.003-.007-.003-.012-.01-.016-.02a.045.045 0 0 1 .002-.039.277.277 0 0 1 .059-.06.946.946 0 0 1 .094-.073.442.442 0 0 1 .077-.045c.016-.006.029-.006.04.002.01.007.02.023.03.047.01.022.028.073.057.154.03.08.056.15.079.207M17.399 20.217l.03.044a2.484 2.484 0 0 0 .108-.068c.081-.054.13-.11.146-.166.015-.055 0-.118-.047-.187-.043-.065-.094-.1-.153-.106-.058-.006-.125.017-.203.07a.276.276 0 0 0-.067.056.053.053 0 0 0-.009.047.46.46 0 0 0 .036.069c.019.031.051.08.097.148zm.117.126c-.01.006-.014.014-.013.024.002.009.012.028.03.056l.012.016c.066.098.113.164.14.197.028.033.048.05.06.051.01 0 .024-.001.042-.006.036-.01.06-.004.074.015.014.02.011.044-.01.07a.718.718 0 0 1-.142.114.718.718 0 0 1-.158.088c-.032.01-.055.004-.07-.017-.012-.018-.007-.043.014-.075a.162.162 0 0 0 .02-.036c.006-.015-.009-.051-.042-.11a5.806 5.806 0 0 0-.2-.312 5.833 5.833 0 0 0-.186-.262.456.456 0 0 0-.093-.106.148.148 0 0 0-.062.005c-.032.006-.054 0-.066-.017a.05.05 0 0 1-.004-.054.162.162 0 0 1 .057-.057 9.843 9.843 0 0 1 .156-.102c.037-.025.083-.058.139-.1l.112-.08c.106-.071.2-.102.284-.093.082.01.154.06.215.149a.33.33 0 0 1 .054.292c-.03.096-.107.186-.231.27-.021.014-.047.03-.077.047l-.055.033M18.106 19.787l-.04-.051a3.154 3.154 0 0 0-.178-.211c-.03-.03-.051-.043-.065-.04a.248.248 0 0 0-.053.017c-.034.015-.057.015-.07-.001a.045.045 0 0 1-.009-.038.274.274 0 0 1 .039-.076.951.951 0 0 1 .069-.096.459.459 0 0 1 .062-.065c.013-.01.026-.014.038-.01s.026.017.043.037l.04.053c.12.162.246.324.374.485.095.118.156.193.185.223.029.03.05.047.064.05a.155.155 0 0 0 .053-.01c.027-.01.047-.005.061.012.013.017.012.038-.005.063a.584.584 0 0 1-.111.106.662.662 0 0 1-.143.096c-.027.01-.049.005-.064-.014-.011-.014-.01-.032.001-.055a.17.17 0 0 0 .02-.045c.001-.014-.007-.035-.025-.065a1.646 1.646 0 0 0-.1-.135l-.084-.103-.102-.127M18.613 19.697a.448.448 0 0 1-.128-.327.43.43 0 0 1 .146-.312.387.387 0 0 1 .224-.108c.082-.01.145.01.189.058.018.02.026.042.024.066a.1.1 0 0 1-.035.066.11.11 0 0 1-.065.032.235.235 0 0 1-.102-.028.21.21 0 0 0-.101-.022.139.139 0 0 0-.08.04.182.182 0 0 0-.063.158c.006.06.04.124.099.188a.379.379 0 0 0 .226.129.248.248 0 0 0 .212-.067.277.277 0 0 0 .081-.136l.007-.04c.006-.038.015-.062.028-.074a.039.039 0 0 1 .028-.012c.01 0 .018.005.026.014.01.01.017.027.022.05a.22.22 0 0 1 .003.07.438.438 0 0 1-.14.286.401.401 0 0 1-.304.113.423.423 0 0 1-.297-.144M19.55 19.213a.128.128 0 0 1-.044-.092.128.128 0 0 1 .037-.095.128.128 0 0 1 .091-.043.127.127 0 0 1 .096.036c.026.025.04.056.042.093a.127.127 0 0 1-.036.095.128.128 0 0 1-.092.042.129.129 0 0 1-.095-.036" fill="#21409a"/><path d="M22.929 14.28v-.004-.004l-.001-.003-.002-.004-.002-.002-.003-.003c-.006-.004-.015-.015-.026-.029-.043-.052-.118-.144-.27-.156l.044-.025a.017.017 0 0 0 .01-.014c0-.006-.001-.013-.006-.017a.483.483 0 0 0-.198-.112.465.465 0 0 0-.114-.024v-.159a.02.02 0 0 0-.02-.019h-.158a.51.51 0 0 0-.023-.112.497.497 0 0 0-.114-.198.02.02 0 0 0-.015-.006.019.019 0 0 0-.015.01l-.024.044c-.012-.152-.104-.227-.157-.27a.173.173 0 0 1-.029-.026s-.002 0-.002-.002l-.003-.003-.003-.001-.004-.001h-.011c0 .002-.002.001-.004.002l-.003.003-.002.003a.228.228 0 0 1-.029.025c-.052.044-.144.119-.156.27l-.025-.044a.021.021 0 0 0-.014-.01.02.02 0 0 0-.016.006.489.489 0 0 0-.113.198.536.536 0 0 0-.024.115h-.16a.018.018 0 0 0-.015.006.02.02 0 0 0-.005.014v.156a.475.475 0 0 0-.111.024.486.486 0 0 0-.198.112.02.02 0 0 0-.006.017.02.02 0 0 0 .01.014s.02.01.043.024a.366.366 0 0 0-.268.157c-.012.013-.021.025-.027.03l-.002.001-.002.003-.002.004a.06.06 0 0 1-.002.003v.008l.001.003.002.003.001.002.004.004c.006.004.015.015.027.029a.366.366 0 0 0 .269.157 3.29 3.29 0 0 1-.044.024c-.005.004-.01.008-.01.015-.001.005.001.011.005.016.032.031.08.07.199.112.032.011.072.02.114.024v.162c-.001.005.001.01.005.014a.02.02 0 0 0 .014.006l.158-.002a.458.458 0 0 0 .025.114.49.49 0 0 0 .112.198.02.02 0 0 0 .017.005.02.02 0 0 0 .014-.01s.01-.02.024-.043a.371.371 0 0 0 .157.27c.014.01.025.019.029.025l.001.001.003.003h.002a.016.016 0 0 0 .01.004.023.023 0 0 0 .01-.003l.004-.004h.001c.005-.007.016-.016.03-.027a.37.37 0 0 0 .156-.27l.025.044a.02.02 0 0 0 .014.01c.006.001.012-.002.017-.006a.5.5 0 0 0 .112-.198.546.546 0 0 0 .024-.115l.16-.001c.01 0 .02-.009.02-.02v-.157a.489.489 0 0 0 .112-.025.503.503 0 0 0 .198-.112.022.022 0 0 0 .005-.016.02.02 0 0 0-.01-.015l-.044-.024c.152-.012.227-.104.27-.157a.21.21 0 0 1 .029-.032l.002-.002.001-.004.002-.003" fill="#fff"/><path d="M21.547 15.173v.001zm.487-1.788v-.002zm-.557 1.559c-.03-.082-.04-.227.02-.286.017-.016.034-.022.049-.015.012.006.023.02.022.032 0 .01-.009.018-.025.024a.037.037 0 0 0-.022.02.038.038 0 0 0-.002.029c.005.016.02.026.036.026l.014-.002a.12.12 0 0 0 .03-.016c0 .07.027.182.163.318.016.015.042.014.055 0 .134-.133.167-.241.165-.318.01.007.02.011.03.016l.014.002c.016 0 .03-.01.037-.026a.039.039 0 0 0-.024-.05c-.017-.005-.025-.014-.026-.023 0-.012.01-.026.022-.032.015-.007.033-.001.05.015.059.059.05.204.02.286a.65.65 0 0 1-.064.136l-.034-.062a.037.037 0 0 0-.034-.02h-.012a.04.04 0 0 0-.028.041c.017.175-.078.253-.134.299l-.008.006-.008-.006c-.057-.047-.151-.124-.135-.299a.04.04 0 0 0-.028-.04l-.01-.002a.04.04 0 0 0-.035.021l-.034.061a.614.614 0 0 1-.064-.135m-.166-.78c.032 0 .052.008.062.014a.405.405 0 0 0 0 .198c-.038.02-.135.046-.294-.1.102-.093.181-.112.23-.112v-.013zm.714-.367v-.001zm-.347.96c0-.032.008-.052.014-.061.068.015.131.015.197 0 .022.038.037.146-.099.295-.094-.104-.113-.184-.112-.233m-.043-.865h-.005l.002-.008.003.008m.311 0l.004-.006v.007l-.004-.001m-.057-.032a.408.408 0 0 0-.197 0 .127.127 0 0 1-.015-.062c0-.049.02-.129.113-.233.136.149.121.257.1.295m-.348.667a.351.351 0 1 1 .498-.002.36.36 0 0 1-.498.002m.666-.35a.124.124 0 0 1 .061-.015c.075.002.152.039.234.113-.16.146-.258.12-.295.1a.416.416 0 0 0 0-.198m-1.157.315a.038.038 0 0 0 .02-.045.038.038 0 0 0-.038-.028h-.003c-.175.016-.25-.075-.298-.135l-.007-.008.007-.008c.044-.054.111-.137.258-.137.013 0 .026 0 .044.002.017 0 .032-.01.036-.027a.038.038 0 0 0-.02-.046 2.942 2.942 0 0 1-.061-.033.596.596 0 0 1 .136-.065.452.452 0 0 1 .142-.024c.065 0 .116.016.144.044.011.012.023.03.015.05a.038.038 0 0 1-.032.021c-.01 0-.017-.009-.023-.025a.04.04 0 0 0-.037-.026l-.013.002a.04.04 0 0 0-.024.05c.005.011.01.022.016.031-.07-.001-.181.027-.318.163a.039.039 0 0 0 0 .055c.135.136.245.165.315.165h.002a.172.172 0 0 0-.015.03.039.039 0 0 0 .002.03.04.04 0 0 0 .022.02l.013.002c.016 0 .031-.01.037-.026.005-.016.014-.025.023-.025.014 0 .026.008.032.022.009.02-.004.037-.015.05-.028.027-.08.043-.144.043a.433.433 0 0 1-.142-.024.62.62 0 0 1-.136-.064l.062-.034m-.018-.06zm1.557-.011c-.012 0-.025 0-.043-.003a.038.038 0 0 0-.036.029.038.038 0 0 0 .019.045l.06.033a.58.58 0 0 1-.134.065.424.424 0 0 1-.142.024c-.065 0-.116-.016-.144-.044-.011-.012-.023-.03-.015-.05.006-.012.019-.021.032-.021.01 0 .018.009.024.025.005.015.02.026.036.026l.013-.002a.043.043 0 0 0 .023-.02.04.04 0 0 0 0-.03.134.134 0 0 0-.014-.031c.069.002.18-.026.318-.165a.039.039 0 0 0-.001-.055c-.135-.134-.245-.162-.317-.162a.122.122 0 0 0 .014-.031.042.042 0 0 0 0-.03.041.041 0 0 0-.023-.02l-.013-.002a.038.038 0 0 0-.037.026c-.005.016-.013.025-.023.025a.038.038 0 0 1-.032-.022c-.008-.019.003-.037.015-.049.028-.028.08-.044.143-.044a.44.44 0 0 1 .143.023.642.642 0 0 1 .135.065 2.679 2.679 0 0 1-.06.034.038.038 0 0 0-.02.045c.005.016.019.028.04.028.175-.016.25.075.304.14l.001.003-.007.008a.309.309 0 0 1-.259.137m-.408-.536a.36.36 0 0 0 .022-.122h.098v.099a.332.332 0 0 0-.12.023m-.25-.369a.04.04 0 0 0 .029.041l.01.002a.04.04 0 0 0 .035-.02l.033-.063a.562.562 0 0 1 .065.136c.03.082.04.227-.02.285-.017.017-.034.022-.049.016-.012-.006-.023-.02-.022-.032 0-.013.015-.02.025-.024a.04.04 0 0 0 .024-.05.04.04 0 0 0-.036-.026l-.013.003a.162.162 0 0 0-.031.015c.001-.076-.032-.185-.166-.318a.039.039 0 0 0-.054.001c-.136.136-.164.247-.163.317a.143.143 0 0 0-.03-.015l-.014-.002a.038.038 0 0 0-.036.026.037.037 0 0 0 .001.03.04.04 0 0 0 .022.02c.012.003.025.01.026.023 0 .012-.01.027-.023.032-.014.007-.032.001-.048-.015-.06-.058-.05-.204-.021-.286a.636.636 0 0 1 .065-.136l.032.062a.04.04 0 0 0 .035.02h.012a.039.039 0 0 0 .027-.042c-.016-.175.079-.252.135-.298l.008-.007.008.007c.057.046.151.123.135.298m-.667.358v.001zm.01-.108h.1c.001.045.01.085.022.119a.348.348 0 0 0-.123-.023zm.125.9a.341.341 0 0 0-.025.125h-.098v-.1a.347.347 0 0 0 .123-.026m.905.123h-.1a.333.333 0 0 0-.026-.123.347.347 0 0 0 .125.026zm.636-.533l-.01-.011c-.004-.003-.015-.017-.022-.026a.398.398 0 0 0-.227-.155.036.036 0 0 0 .015-.025.038.038 0 0 0-.01-.033.505.505 0 0 0-.206-.117.466.466 0 0 0-.101-.023l-.002-.142c.001-.02-.017-.038-.039-.038h-.14a.51.51 0 0 0-.022-.099.508.508 0 0 0-.117-.206c-.008-.007-.018-.01-.033-.01a.04.04 0 0 0-.026.014c-.028-.123-.11-.189-.157-.227a.188.188 0 0 1-.023-.02l-.012-.012-.005.011-.007-.016-.022.002.005.012-.014-.008-.009.01a.319.319 0 0 1-.025.022.399.399 0 0 0-.155.226.044.044 0 0 0-.031-.015c-.01 0-.02.004-.027.011a.524.524 0 0 0-.117.206.537.537 0 0 0-.023.101l-.144.001a.04.04 0 0 0-.027.011.04.04 0 0 0-.011.028v.139a.518.518 0 0 0-.1.023.51.51 0 0 0-.204.116.037.037 0 0 0-.01.033c0 .01.005.02.013.026-.123.028-.189.11-.226.155-.008.009-.018.023-.024.026l-.006.007-.009.024.003.014.012-.004-.006.013.007.01a.142.142 0 0 1 .023.024.4.4 0 0 0 .226.156.036.036 0 0 0-.014.025.036.036 0 0 0 .01.033.517.517 0 0 0 .206.117c.029.01.064.018.102.023l-.001.144c0 .011.004.02.011.028a.039.039 0 0 0 .028.011l.141-.001a.479.479 0 0 0 .023.1.513.513 0 0 0 .117.206c.007.006.018.01.033.01a.04.04 0 0 0 .025-.014c.028.122.108.187.16.23a.2.2 0 0 1 .024.021l.01-.007-.002.015a.038.038 0 0 0 .043-.001l.009-.01a.297.297 0 0 1 .026-.022.397.397 0 0 0 .155-.226.043.043 0 0 0 .03.014c.011 0 .02-.004.028-.011a.498.498 0 0 0 .117-.205.505.505 0 0 0 .023-.103h.144a.04.04 0 0 0 .039-.04l-.001-.14a.48.48 0 0 0 .1-.023.502.502 0 0 0 .204-.117.04.04 0 0 0 .011-.033.04.04 0 0 0-.015-.025c.123-.028.19-.11.227-.156a.24.24 0 0 1 .022-.025l.016-.025z" fill="#21409a"/><path d="M21.875 14.193c-.025-.025-.038-.084-.044-.135a.219.219 0 0 1 .18.178c-.064-.006-.113-.021-.136-.043m.137.126a.22.22 0 0 1-.18.18c.005-.037.015-.106.045-.135.021-.022.07-.038.135-.045m-.148-.04a.166.166 0 0 0-.043.03.173.173 0 0 0-.03.044.165.165 0 0 0-.074-.075.182.182 0 0 0 .043-.03.181.181 0 0 0 .03-.043.166.166 0 0 0 .03.043.166.166 0 0 0 .044.03m-.159.086c.022.021.037.07.044.135a.218.218 0 0 1-.18-.178c.037.003.106.013.136.043m.044-.306c-.007.063-.023.113-.045.135-.03.03-.098.041-.135.045a.222.222 0 0 1 .18-.18m.256.005a.301.301 0 0 0-.518.216.305.305 0 0 0 .304.303.302.302 0 0 0 .213-.518" fill="#21409a"/><path d="M3.348 14.28v-.005-.003l-.001-.004s0-.002-.002-.003l-.002-.003-.003-.002c-.006-.004-.015-.016-.025-.03-.044-.052-.119-.144-.27-.156l.043-.025a.018.018 0 0 0 .01-.014.021.021 0 0 0-.005-.016.484.484 0 0 0-.199-.112.472.472 0 0 0-.114-.024v-.16a.02.02 0 0 0-.02-.019h-.157a.512.512 0 0 0-.024-.111.497.497 0 0 0-.113-.199.02.02 0 0 0-.016-.005.02.02 0 0 0-.014.01l-.025.043a.37.37 0 0 0-.157-.27.172.172 0 0 1-.028-.025l-.003-.002-.002-.003-.004-.002h-.015c0 .001-.002 0-.003.002-.002 0-.002.002-.003.002 0 .002-.002.002-.002.003a.214.214 0 0 1-.03.026c-.052.043-.144.118-.156.27l-.024-.044a.021.021 0 0 0-.014-.01.02.02 0 0 0-.017.006.489.489 0 0 0-.113.197.528.528 0 0 0-.023.116h-.161a.017.017 0 0 0-.014.006.019.019 0 0 0-.006.014v.155a.474.474 0 0 0-.11.024.485.485 0 0 0-.199.113.019.019 0 0 0-.006.016.02.02 0 0 0 .01.014l.043.025a.366.366 0 0 0-.268.157.304.304 0 0 1-.027.03l-.002.001-.002.002c-.002.002-.002.003-.002.005l-.002.003v.008l.002.002c0 .002 0 .003.002.004v.002l.004.003c.006.005.015.016.027.03a.366.366 0 0 0 .269.156l-.044.025c-.005.003-.009.008-.01.014 0 .006.002.012.006.016.032.032.079.07.198.113.032.011.072.02.115.024l-.001.162c0 .005.001.01.005.013a.02.02 0 0 0 .014.006h.001l.158-.001a.456.456 0 0 0 .024.113c.043.119.08.167.112.198a.02.02 0 0 0 .031-.004l.024-.044c.013.152.105.226.157.27.014.01.025.02.03.026l.003.004H2.2a.017.017 0 0 0 .01.004.025.025 0 0 0 .01-.003h.001l.004-.004c.006-.007.017-.017.03-.028a.37.37 0 0 0 .157-.269l.024.044a.02.02 0 0 0 .015.01c.006 0 .012-.002.016-.006a.5.5 0 0 0 .112-.198.532.532 0 0 0 .024-.116h.161c.01 0 .02-.01.02-.02l-.001-.158a.482.482 0 0 0 .112-.024.5.5 0 0 0 .199-.112.022.022 0 0 0 .004-.017.021.021 0 0 0-.01-.014l-.043-.024c.151-.013.226-.105.27-.157a.2.2 0 0 1 .028-.033l.002-.001.002-.004a.05.05 0 0 0 .001-.003" fill="#fff"/><path d="M1.967 15.172v.001zm.487-1.788h-.001v-.002zm-.558 1.56c-.03-.083-.04-.228.02-.287.017-.016.035-.021.05-.015.012.006.022.02.022.032 0 .01-.01.018-.026.024a.037.037 0 0 0-.022.02.037.037 0 0 0-.002.029c.005.016.02.027.037.026l.013-.002a.119.119 0 0 0 .031-.016c0 .07.027.182.163.319.015.014.04.014.054 0 .134-.133.167-.242.165-.318.01.006.02.01.031.015l.013.002c.016 0 .031-.01.037-.026a.039.039 0 0 0-.024-.05c-.017-.005-.025-.014-.025-.023-.001-.012.009-.026.021-.032.016-.007.033 0 .05.016.059.058.05.203.02.285a.647.647 0 0 1-.064.136l-.034-.062a.038.038 0 0 0-.034-.02l-.011.001a.04.04 0 0 0-.028.04c.017.176-.078.253-.135.299l-.008.007-.008-.007c-.057-.047-.15-.124-.135-.298a.04.04 0 0 0-.028-.041l-.01-.002a.04.04 0 0 0-.035.021c-.01.017-.021.04-.034.061a.615.615 0 0 1-.064-.135m-.165-.78c.031 0 .051.009.061.014a.406.406 0 0 0 0 .198c-.038.02-.135.046-.294-.1.102-.092.181-.112.23-.112v-.013zm.714-.367zm-.348.96c0-.031.009-.052.015-.061.067.015.13.015.197 0 .021.038.036.146-.1.295-.094-.104-.112-.184-.112-.233m-.042-.865l-.005.001.001-.009.004.008m.31 0l.004-.006v.007l-.004-.001m-.056-.032a.407.407 0 0 0-.198 0 .126.126 0 0 1-.014-.061c-.001-.05.018-.13.112-.233.136.148.121.256.1.294m-.347.667a.35.35 0 0 1 .247-.6.351.351 0 0 1 .25.598.36.36 0 0 1-.497.002m.665-.35a.122.122 0 0 1 .062-.015c.074.002.15.039.233.113-.16.146-.257.12-.294.1a.413.413 0 0 0 0-.197m-1.157.314a.038.038 0 0 0 .018-.045.038.038 0 0 0-.036-.028h-.004c-.175.016-.25-.075-.298-.134l-.007-.009.007-.008c.044-.054.111-.136.258-.137.013 0 .026 0 .044.002.017.001.032-.01.036-.027a.038.038 0 0 0-.019-.046 2.59 2.59 0 0 1-.062-.033.605.605 0 0 1 .137-.065.456.456 0 0 1 .142-.023c.064 0 .115.015.143.043.012.012.024.03.015.05a.038.038 0 0 1-.032.021c-.01 0-.017-.009-.023-.025a.04.04 0 0 0-.037-.026l-.013.002a.04.04 0 0 0-.024.05c.005.012.01.022.016.031-.07-.001-.181.027-.318.164a.039.039 0 0 0 0 .054c.135.137.245.165.315.165h.002a.173.173 0 0 0-.014.03.038.038 0 0 0 .024.05l.012.002c.016 0 .032-.01.037-.026.006-.016.014-.025.023-.025.014 0 .026.008.032.022.01.02-.003.037-.015.05-.028.027-.079.043-.143.043a.435.435 0 0 1-.142-.024.624.624 0 0 1-.136-.064l.062-.034m-.018-.06zm1.557-.011c-.013 0-.026 0-.043-.002a.038.038 0 0 0-.037.028.038.038 0 0 0 .02.045l.06.033a.581.581 0 0 1-.135.065.424.424 0 0 1-.141.024c-.066 0-.117-.016-.145-.044-.011-.012-.023-.03-.015-.05.006-.012.02-.021.032-.021.01 0 .018.009.024.025.006.016.02.026.036.026l.013-.002a.044.044 0 0 0 .023-.02.04.04 0 0 0 0-.03.134.134 0 0 0-.014-.03c.069 0 .18-.027.318-.165a.039.039 0 0 0 0-.056c-.135-.134-.246-.162-.318-.162a.12.12 0 0 0 .014-.031.042.042 0 0 0 0-.03.041.041 0 0 0-.023-.02l-.012-.002a.038.038 0 0 0-.038.026c-.005.016-.013.025-.022.025a.038.038 0 0 1-.033-.022c-.008-.019.004-.037.015-.049.028-.028.08-.044.144-.044a.44.44 0 0 1 .142.024.638.638 0 0 1 .136.064 3.356 3.356 0 0 1-.062.034.038.038 0 0 0-.02.045c.006.017.02.028.041.028.175-.016.25.075.304.14l.002.003-.007.008a.309.309 0 0 1-.26.137m-.408-.536a.364.364 0 0 0 .023-.122h.097l.001.099a.332.332 0 0 0-.12.023m-.25-.369a.04.04 0 0 0 .028.042h.011a.04.04 0 0 0 .034-.02l.034-.062a.563.563 0 0 1 .065.136c.03.083.039.227-.021.286-.016.016-.034.022-.048.015-.013-.005-.023-.02-.022-.032 0-.012.014-.02.025-.023a.04.04 0 0 0 .024-.05.04.04 0 0 0-.037-.026l-.013.003a.16.16 0 0 0-.031.014c.001-.075-.031-.185-.165-.317a.04.04 0 0 0-.054 0c-.137.136-.164.248-.163.317a.136.136 0 0 0-.032-.015l-.013-.002a.039.039 0 0 0-.036.026.038.038 0 0 0 .002.03.04.04 0 0 0 .022.02c.011.004.025.01.025.023 0 .012-.01.027-.022.032-.015.007-.033.001-.049-.015-.06-.058-.05-.203-.02-.286a.633.633 0 0 1 .064-.136l.033.062a.04.04 0 0 0 .035.021l.01-.001a.039.039 0 0 0 .028-.041c-.016-.175.079-.252.135-.299l.008-.006.008.006c.057.046.152.123.135.298m-.666.359zm.009-.109h.1c.001.045.01.085.023.119a.35.35 0 0 0-.123-.023zm.126.9a.344.344 0 0 0-.025.125l-.099.001v-.1a.348.348 0 0 0 .124-.026m.904.123h-.1a.332.332 0 0 0-.026-.123.347.347 0 0 0 .125.025zm.637-.534l-.01-.011c-.004-.002-.016-.017-.023-.025a.398.398 0 0 0-.226-.156.036.036 0 0 0 .014-.025.038.038 0 0 0-.01-.033.507.507 0 0 0-.206-.117.471.471 0 0 0-.101-.022l-.001-.143c0-.02-.017-.038-.04-.038H2.62a.507.507 0 0 0-.023-.099.508.508 0 0 0-.117-.205c-.007-.008-.018-.01-.033-.012a.041.041 0 0 0-.025.015c-.028-.123-.11-.189-.157-.227a.213.213 0 0 1-.023-.02l-.012-.012-.006.012-.007-.017-.021.002.004.012-.014-.007-.008.009a.296.296 0 0 1-.025.022.398.398 0 0 0-.156.227.045.045 0 0 0-.031-.016c-.01 0-.02.005-.027.011a.524.524 0 0 0-.117.206.543.543 0 0 0-.023.102h-.144a.039.039 0 0 0-.038.04v.138a.54.54 0 0 0-.099.023.51.51 0 0 0-.205.117.037.037 0 0 0-.01.032c0 .01.006.02.014.026-.124.029-.19.11-.227.155-.007.01-.018.023-.023.026l-.007.007-.008.025.002.014.013-.005-.007.014.007.008a.143.143 0 0 1 .024.026.399.399 0 0 0 .226.155.036.036 0 0 0-.014.025.036.036 0 0 0 .01.033.516.516 0 0 0 .206.117.5.5 0 0 0 .101.023v.145c0 .01.004.02.01.027a.038.038 0 0 0 .028.011H1.8a.482.482 0 0 0 .023.1.51.51 0 0 0 .117.205c.007.007.017.01.032.01a.039.039 0 0 0 .026-.014c.028.122.107.187.16.23.008.007.019.015.024.022l.01-.008-.002.015a.037.037 0 0 0 .02.006.043.043 0 0 0 .023-.007l.008-.01a.306.306 0 0 1 .026-.022.397.397 0 0 0 .156-.226.043.043 0 0 0 .03.015c.01 0 .02-.004.027-.012a.5.5 0 0 0 .118-.205.504.504 0 0 0 .022-.103h.144a.039.039 0 0 0 .04-.039l-.002-.14a.48.48 0 0 0 .1-.024.5.5 0 0 0 .205-.117.04.04 0 0 0 .01-.033.04.04 0 0 0-.014-.025c.123-.028.189-.11.226-.155a.277.277 0 0 1 .022-.026l.016-.025z" fill="#21409a"/><path d="M2.295 14.192c-.026-.025-.04-.084-.045-.135a.22.22 0 0 1 .18.178c-.064-.005-.113-.021-.135-.043m.136.126a.219.219 0 0 1-.18.18c.005-.036.015-.106.045-.135.021-.022.071-.038.135-.045m-.147-.04a.163.163 0 0 0-.043.03.172.172 0 0 0-.03.044.166.166 0 0 0-.075-.074.181.181 0 0 0 .043-.03.18.18 0 0 0 .03-.044c.01.017.02.031.031.043a.161.161 0 0 0 .044.03m-.16.087c.022.02.038.07.045.134a.218.218 0 0 1-.18-.178c.037.003.105.014.136.044m.043-.307c-.007.063-.022.113-.044.135-.03.03-.098.041-.135.045a.22.22 0 0 1 .179-.18m.256.006a.302.302 0 0 0-.214-.088h-.001a.301.301 0 0 0-.303.303.305.305 0 0 0 .304.303h.001a.302.302 0 0 0 .213-.518" fill="#21409a"/><path d="M5.33 11.41c.029 0 .065.033.108.098a.354.354 0 0 1 .066.203c0 .074-.01.146-.03.216-.02.07-.068.222-.144.453h-.503v-1.942l-.136-.086c-.113-.068-.17-.123-.17-.164 0-.04.036-.115.107-.225l.323-.49.206.12.104.062c.06.034.11.052.152.052.008 0 .015 0 .021-.002l.07-.01c0 .046-.032.126-.096.24-.064.116-.122.177-.174.185a.168.168 0 0 1-.025.002.38.38 0 0 1-.183-.066l-.13-.076-.081.145.515.309zM6.573 11.104v1.276h-.502a79.898 79.898 0 0 0-.18-.463.545.545 0 0 1-.038-.206c0-.071.022-.139.066-.203.043-.065.094-.097.152-.097v-.973l-.136-.086c-.113-.068-.17-.123-.17-.164 0-.04.036-.115.107-.225l.323-.49.206.12.104.062c.06.035.11.052.152.052.008 0 .015 0 .021-.002l.07-.01c0 .045-.032.126-.096.24-.064.116-.122.177-.175.185a.155.155 0 0 1-.024.002.38.38 0 0 1-.183-.066l-.13-.076-.081.146.514.308v.391H7.4v-.387l-.136-.086c-.113-.068-.17-.123-.17-.164 0-.04.036-.115.107-.225l.323-.49.206.12.105.062c.059.035.11.052.151.052.008 0 .015 0 .021-.002l.07-.01c0 .045-.032.126-.096.24-.064.116-.122.177-.175.185a.153.153 0 0 1-.024.002.38.38 0 0 1-.183-.066L7.47 9.98l-.082.146.515.308v1.946H7.4a78.378 78.378 0 0 0-.18-.463.544.544 0 0 1-.038-.206c0-.071.022-.139.066-.203.043-.065.094-.097.152-.097v-.307zM9.103 11.926c.058-.064.087-.117.087-.157 0-.032-.009-.055-.026-.07a.1.1 0 0 0-.061-.019zm2.57-.128c0 .13-.072.259-.217.388-.145.13-.364.194-.654.194-.291 0-.51-.065-.654-.194-.146-.13-.219-.259-.219-.388v-.872a.293.293 0 0 0-.092-.207c-.062-.064-.154-.095-.277-.095h-.088c-.123 0-.215.031-.277.095a.292.292 0 0 0-.092.207v.485c.116 0 .196.032.239.097a.356.356 0 0 1 .066.203.544.544 0 0 1-.039.205 1.947 1.947 0 0 1-.151.28l-.115.184H8.6v-1.454c0-.13.073-.258.218-.388a.661.661 0 0 1 .292-.127l-.126-.064c-.14-.071-.21-.125-.21-.16 0-.04.045-.114.133-.224l.4-.49.385.193a.397.397 0 0 0 .251.049l.088-.02c0 .046-.02.124-.059.235-.039.11-.09.177-.154.2a.209.209 0 0 1-.07.011.535.535 0 0 1-.28-.064l-.254-.137-.12.153.539.254c.257.012.454.08.592.202.138.122.207.248.207.377v.872c0 .075.03.144.092.208.062.063.154.095.278.095.123 0 .215-.032.277-.095a.293.293 0 0 0 .092-.208v-1.36l-.136-.086c-.112-.068-.169-.123-.169-.164 0-.04.036-.115.107-.225l.322-.49.206.12.105.062c.06.034.11.052.152.052.008 0 .015 0 .02-.002l.07-.01c0 .046-.032.126-.096.24-.064.116-.122.177-.174.185a.156.156 0 0 1-.024.002.38.38 0 0 1-.184-.066l-.129-.076-.082.146.515.306zM11.587 13.64h-.35v-.743c-.057-.023-.086-.075-.086-.155 0-.112.072-.168.218-.168.145 0 .218.056.218.168zM10.366 8.6c0 .065.029.097.087.097h.82a2.227 2.227 0 0 0-.383-.152 1.362 1.362 0 0 0-.35-.042c-.116 0-.174.033-.174.097m.924-.182v-.496h.297v.872c0 .13-.058.194-.175.194h-1.046c-.233 0-.35-.13-.35-.388 0-.323.175-.484.524-.484.252 0 .502.1.75.302M12.874 11.478v.435c.09-.102.136-.198.136-.287 0-.052-.016-.09-.047-.115a.18.18 0 0 0-.089-.033m.832-.271h-.005v-.862c0-.099-.068-.211-.203-.338-.136-.126-.255-.19-.359-.19-.12 0-.267.097-.437.29l.066.048c.07.049.106.112.106.19v.876c.143.011.236.048.278.11.05.078.074.16.074.244 0 .101-.023.208-.07.32a2.98 2.98 0 0 1-.282.485h-.502v-1.954l-.108-.074c-.056-.037-.084-.098-.084-.182 0-.084.13-.221.39-.412.261-.19.45-.286.57-.286.183 0 .406.09.67.267.262.178.393.38.393.606v.725h.006v.728c0 .075.03.144.092.208.062.063.154.095.277.095.124 0 .216-.032.278-.095a.293.293 0 0 0 .092-.208v-1.36l-.136-.086c-.113-.068-.169-.123-.169-.164 0-.04.035-.115.106-.225l.323-.49.206.12.104.062c.06.034.11.052.152.052.008 0 .015 0 .021-.002l.07-.01c0 .045-.032.126-.096.24-.064.116-.122.177-.174.185a.156.156 0 0 1-.025.002.379.379 0 0 1-.183-.066l-.13-.076-.081.146.515.308v1.364c0 .13-.073.259-.218.388-.146.13-.364.194-.655.194-.29 0-.508-.065-.654-.194-.145-.13-.218-.259-.218-.388zM14.137 8.6c0 .065.03.097.087.097h.82a2.222 2.222 0 0 0-.383-.152 1.361 1.361 0 0 0-.35-.042c-.116 0-.174.033-.174.097m.924-.182v-.496h.297v.872c0 .13-.058.194-.175.194h-1.046c-.232 0-.349-.13-.349-.388 0-.323.174-.484.524-.484.252 0 .502.1.75.302M16.448 9.833c0 .037.019.07.056.097h.046c.068 0 .102-.032.102-.097 0-.031-.007-.054-.022-.07-.019-.018-.046-.027-.08-.027s-.06.008-.077.025c-.017.016-.025.04-.025.072m.197 2.107l.414-.38.413.38V10.44h.503v1.939h-.416l-.5-.458-.5.458h-.416v-2.088l.502.192zm1.117-1.838a.147.147 0 0 1-.012.012c-.15.128-.374.192-.672.192-.07 0-.135-.001-.195-.004l-.185-.01a.774.774 0 0 1-.37-.125.364.364 0 0 1-.185-.326.37.37 0 0 1 .1-.266.376.376 0 0 1 .277-.103c.116 0 .207.028.272.084a.28.28 0 0 1 .101.228.277.277 0 0 1-.104.23 2.612 2.612 0 0 0 .289.013.453.453 0 0 0 .291-.084.28.28 0 0 0 .103-.23c0-.189-.054-.283-.164-.283-.07 0-.105-.064-.105-.19 0-.104.064-.155.193-.155.367 0 .56.189.577.568.184-.12.313-.18.389-.18.16 0 .343.088.548.266.204.178.307.367.307.567v2.074h-.503v-2.074c0-.072-.064-.156-.194-.25-.13-.095-.223-.142-.28-.142-.049 0-.208.063-.478.188" fill="#214497"/></svg>