<svg xmlns="http://www.w3.org/2000/svg" width="24" height="24"><path d="M3.845 0A3.843 3.843 0 0 0 0 3.845v16.31A3.844 3.844 0 0 0 3.845 24h16.311A3.844 3.844 0 0 0 24 20.155v-.167c-.072-.03-6.238-2.601-9.371-4.108-2.115 2.602-4.842 4.18-7.673 4.18-4.788 0-6.414-4.19-4.147-6.949.494-.6 1.335-1.175 2.64-1.497 2.042-.502 5.29.313 8.336 1.318a16.684 16.684 0 0 0 1.352-3.304H5.752v-.95h4.84V6.974H4.73v-.952h5.86v-2.43s0-.41.416-.41h2.365v2.84h5.794v.952h-5.794v1.704h4.73a19.347 19.347 0 0 1-2.003 5.059c1.436.519 2.724 1.011 3.685 1.333 3.202 1.072 4.1 1.203 4.216 1.216V3.846A3.844 3.844 0 0 0 20.156 0H3.845zm2.631 13.003a7.012 7.012 0 0 0-.62.034c-.6.06-1.725.325-2.34.87-1.845 1.608-.74 4.55 2.993 4.55 2.17 0 4.338-1.388 6.042-3.61-2.196-1.071-4.088-1.867-6.075-1.844z" fill="#00a1e9"/></svg>