<svg xmlns="http://www.w3.org/2000/svg" width="210" height="120" preserveAspectRatio="xMidYMid" id="svg9254"><defs id="defs9258"><linearGradient id="SVGID_4_" gradientUnits="userSpaceOnUse" x1="28" y1="75.2" x2="68.5" y2="75.2" gradientTransform="matrix(2.0492 0 0 2.0492 -69.6 -376.2)"><stop offset="0" id="stop6363" stop-color="#1f286f"/><stop offset=".5" id="stop6365" stop-color="#004e94"/><stop offset=".8" id="stop6367" stop-color="#0066b1"/><stop offset="1" id="stop6369" stop-color="#006fbc"/></linearGradient><linearGradient id="SVGID_5_" gradientUnits="userSpaceOnUse" x1="72.5" y1="75.2" x2="111.9" y2="75.2" gradientTransform="matrix(2.0492 0 0 2.0492 -69.6 -376.2)"><stop offset="0" id="stop6374" stop-color="#6c2c2f"/><stop offset=".2" id="stop6376" stop-color="#882730"/><stop offset=".6" id="stop6378" stop-color="#be1833"/><stop offset=".9" id="stop6380" stop-color="#dc0436"/><stop offset="1" id="stop6382" stop-color="#e60039"/></linearGradient></defs><rect id="rect4815" width="210" height="120" rx="12.4" ry="12.4" fill="#fff"/><style id="style6319"></style><g id="g18749" transform="matrix(.17767 0 0 .17767 214 69.8)"><path id="path18504" d="M-559.2 196.8c137.7.6 263.5-112.4 263.5-249.8 0-150.4-125.8-254.3-263.5-254.2h-118.6c-139.4 0-254.1 103.9-254.1 254.2 0 137.5 114.7 250.4 254.1 249.8z" fill="#0079be"/><path id="path18506" d="M-677.2-286.4A230.7 230.7 0 1 0-677 175a230.7 230.7 0 0 0-.2-461.4zM-823.4-55.7c.1-62.2 39-115.3 93.9-136.4V80.8a146.4 146.4 0 0 1-93.9-136.5zm198.5 136.5v-273C-570-171-531-118-530.9-55.7c-.2 62.3-39.1 115.4-94 136.5z" fill="#fff"/></g></svg>