<svg xmlns="http://www.w3.org/2000/svg" width="210" height="120" preserveAspectRatio="xMidYMid" id="svg9254"><defs id="defs9258"><linearGradient id="SVGID_4_" gradientUnits="userSpaceOnUse" x1="28" y1="75.2" x2="68.5" y2="75.2" gradientTransform="matrix(2.0492 0 0 2.0492 -69.6 -376.2)"><stop offset="0" id="stop6363" stop-color="#1f286f"/><stop offset=".5" id="stop6365" stop-color="#004e94"/><stop offset=".8" id="stop6367" stop-color="#0066b1"/><stop offset="1" id="stop6369" stop-color="#006fbc"/></linearGradient><linearGradient id="SVGID_5_" gradientUnits="userSpaceOnUse" x1="72.5" y1="75.2" x2="111.9" y2="75.2" gradientTransform="matrix(2.0492 0 0 2.0492 -69.6 -376.2)"><stop offset="0" id="stop6374" stop-color="#6c2c2f"/><stop offset=".2" id="stop6376" stop-color="#882730"/><stop offset=".6" id="stop6378" stop-color="#be1833"/><stop offset=".9" id="stop6380" stop-color="#dc0436"/><stop offset="1" id="stop6382" stop-color="#e60039"/></linearGradient></defs><rect id="rect4815" width="210" height="120" rx="12.4" ry="12.4" fill="#fff"/><style id="style6319"></style><g id="g18424" transform="matrix(.43355 0 0 .43355 53 156.2)"><g transform="matrix(1.82152 0 0 1.82152 -47.8 -351)" id="g6327"><linearGradient gradientTransform="translate(-12 -13.9) scale(1.125)" y2="81.4" x2="157.3" y1="81.4" x1="117.4" gradientUnits="userSpaceOnUse" id="SVGID_1_"><stop id="stop6330" offset="0" stop-color="#007940"/><stop id="stop6332" offset=".2" stop-color="#00873f"/><stop id="stop6334" offset=".7" stop-color="#40a737"/><stop id="stop6336" offset="1" stop-color="#5cb531"/></linearGradient><path id="path6338" d="M129 82.5h10.5l1.3-.1c2-.4 3.7-2.2 3.7-4.7 0-2.4-1.7-4.2-3.7-4.7l-1.3-.1H129z" fill="url(#SVGID_1_)"/><linearGradient gradientTransform="translate(-12 -13.9) scale(1.125)" y2="75.2" x2="157.3" y1="75.2" x1="117.4" gradientUnits="userSpaceOnUse" id="SVGID_2_"><stop id="stop6341" offset="0" stop-color="#007940"/><stop id="stop6343" offset=".2" stop-color="#00873f"/><stop id="stop6345" offset=".7" stop-color="#40a737"/><stop id="stop6347" offset="1" stop-color="#5cb531"/></linearGradient><path id="path6349" d="M138.3 16.2c-10 0-18.2 8.1-18.2 18.2v18.9h25.7l1.8.1c5.8.3 10.1 3.3 10.1 8.5 0 4.1-2.9 7.6-8.3 8.3v.2c5.9.4 10.4 3.7 10.4 8.8 0 5.5-5 9.1-11.6 9.1H120v37h26.7c10 0 18.2-8.1 18.2-18.2V16.2z" fill="url(#SVGID_2_)"/><linearGradient gradientTransform="translate(-12 -13.9) scale(1.125)" y2="68.4" x2="157.3" y1="68.4" x1="117.4" gradientUnits="userSpaceOnUse" id="SVGID_3_"><stop id="stop6352" offset="0" stop-color="#007940"/><stop id="stop6354" offset=".2" stop-color="#00873f"/><stop id="stop6356" offset=".7" stop-color="#40a737"/><stop id="stop6358" offset="1" stop-color="#5cb531"/></linearGradient><path id="path6360" d="M143.2 63.1c0-2.4-1.7-4-3.7-4.3l-1-.1H129v8.8h9.5l1-.1c2-.3 3.7-1.9 3.7-4.3z" fill="url(#SVGID_3_)"/></g><path id="path6371" d="M20.9-321.4a33.2 33.2 0 0 0-33.2 33.1v81.8c9.3 4.6 19 7.5 28.6 7.5 11.5 0 17.7-7 17.7-16.4V-254h28.4v38.4c0 15-9.3 27.1-40.8 27.1-19.1 0-34-4.2-34-4.2v69.8h48.6A33.2 33.2 0 0 0 69.3-156v-165.4z" fill="url(#SVGID_4_)" stroke-width="1.8"/><path id="path6384" d="M112.5-321.4a33.2 33.2 0 0 0-33.2 33.1v43.4c8.4-7.1 23-11.7 46.5-10.6 12.5.6 26 4 26 4v14a63 63 0 0 0-25.1-7.2C108.8-246 98-237.3 98-222c0 15.5 10.7 24.2 28.6 22.8 10.4-.7 18.4-4 25.1-7.3v14s-13.3 3.5-26 4c-23.5 1.1-38-3.4-46.5-10.5v76.5H128a33.2 33.2 0 0 0 33.1-33.2v-165.7z" fill="url(#SVGID_5_)" stroke-width="1.8"/></g></svg>