<svg xmlns="http://www.w3.org/2000/svg" width="210" height="120" viewBox="0 0 210 120"><path d="M24.9 0h160.3c8.6 0 11.7.8 14.9 2.4a17 17 0 017.3 6.8c1.7 3 2.6 5.9 2.6 13.9v73.8c0 8-.9 11-2.6 13.9a17 17 0 01-7.3 6.8c-3.2 1.6-6.3 2.4-15 2.4H25c-8.7 0-11.8-.8-15-2.4a17 17 0 01-7.3-6.8c-1.7-3-2.6-5.9-2.6-13.9V23.1c0-8 .9-11 2.6-13.9a17 17 0 017.3-6.8C13.1.8 16.2 0 25 0z" fill="#000" /><path fill="#ff5f00"  d="M124.4 86.5V25H83v61.6z"/><path d="M87.3 55.7c0-12 6-23.3 16.4-30.8a45.9 45.9 0 00-60.4 6.6 36.9 36.9 0 007.3 55 46.3 46.3 0 0053.1 0 38 38 0 01-16.4-30.8" fill="#eb001b" /><path d="M171.8 97.1v-6h-.7l-1 4.3-.8-4.3h-.7v6h.5v-4.5l.8 4h.6l.8-4v4.5zm-4.6 0v-5h1.4v-1h-3.3v1h1.3v5zM173.3 55.7c0 21.7-19.3 39.2-43 39.2-9.6 0-19-3-26.6-8.4 18.7-13.3 22-38 7.3-55a41.3 41.3 0 00-7.3-6.6 45.9 45.9 0 0160.4 6.6 37 37 0 019.2 24.2z" fill="#f79e1b" /></svg>