<svg xmlns="http://www.w3.org/2000/svg" width="24" height="24" version="1"><circle r="11.5" cx="12" cy="12" fill="red" stroke="#fff"/><path d="M14.58 5.33c-.54 0-1.08.03-1.35.1l-.38.1.72.04c1.68.1 3.05.7 4.23 1.82a6.28 6.28 0 0 1 1.46 1.99c.48.99.63 1.67.63 2.88 0 .8-.03 1.1-.15 1.58a7.9 7.9 0 0 1-1.08 2.34l-.32.44.37-.3a6.52 6.52 0 0 0 1.94-3.17c.24-.9.25-2.14.04-3.02A7.23 7.23 0 0 0 19.73 8a6.62 6.62 0 0 0-3.77-2.56 7.2 7.2 0 0 0-1.38-.11zM12.66 6.8c-.66.05-1.56.3-2.1.56a5.8 5.8 0 0 0-2.91 3.58 6.18 6.18 0 0 0-.09 2.38c.13.65.3 1.13.53 1.5l1.09-.69s-.55-1.65-.2-2.69a4.61 4.61 0 0 1 2.9-2.75c.58-.15 1.62-.1 2.2.11.62.22 1.65.94 1.65 1.15L3.16 18.67l15.16-7.76c-.24-.9-.24-.9-.57-1.47A6.5 6.5 0 0 0 15.9 7.6a5.76 5.76 0 0 0-3.24-.8zm5.9 5.62l-1.9.96a5.55 5.55 0 0 1-.9 1.76 4.6 4.6 0 0 1-1.6 1.1 4 4 0 0 1-3.76-.56l-.3-.21-1.14.65a5.82 5.82 0 0 0 2.98 1.65 6.2 6.2 0 0 0 2.15 0 5.32 5.32 0 0 0 2.71-1.41 5.26 5.26 0 0 0 1.48-2.3c.16-.47.37-1.35.28-1.64z" fill="#fff"/></svg>