<svg xmlns="http://www.w3.org/2000/svg" width="190" height="120" viewBox="0 0 190 120"><path d="M39.6 4C33.3 4 27 9.1 25.5 15.4L4.3 104.7c-1.5 6.2 2.5 11.3 8.8 11.3h137.2c6.4 0 12.7-5.1 14.2-11.3l21.2-89.3C187.2 9 183.2 4 176.9 4H39.7z" fill="none" stroke="#fff" stroke-width="8"/><path fill="#e21836" d="M39.6 4h45.5c6.3 0 10.2 5.1 8.8 11.4l-21.2 89.3A15.4 15.4 0 0158.5 116H13.1c-6.3 0-10.3-5.1-8.8-11.3l21.2-89.3A15.3 15.3 0 0139.7 4"/><path fill="#00447c" d="M81.3 4h52.2c6.4 0 3.5 5.1 2 11.4l-21.1 89.3c-1.5 6.2-1 11.3-7.4 11.3H54.7c-6.3 0-10.2-5.1-8.7-11.3L67 15.4A15.3 15.3 0 0181.3 4"/><path fill="#007b84" d="M131.4 4H177c6.3 0 10.3 5.1 8.8 11.4l-21.2 89.3a15.4 15.4 0 01-14.2 11.3H105c-6.3 0-10.3-5.1-8.8-11.3l21.2-89.3A15.3 15.3 0 01131.5 4"/><path fill="#fefefe" d="M51.5 32.6H45l-3.3 15c-.7 3-1.2 5-2.9 6.3-1 .8-2 1.2-3.3 1.2-2.1 0-3.3-1-3.5-3v-.6l.6-4s3.3-13 3.9-14.7a1.3 1.2 0 000-.2H29l-.2.9-3.4 14.7-.3 1.2-.6 4a6 6 0 00.8 3.1c1.5 2.7 6 3 8.4 3 3.2 0 6.2-.6 8.2-1.8 3.5-2 4.5-5.3 5.3-8.1l.4-1.5s3.4-13.5 4-15.3v-.2zm11.6 11c-.8 0-2.3.1-3.7.8l-1.4.8.4-1.5-.2-.3c-2.9.6-3.5.6-6.2 1l-.2.1c-.3 2.6-.6 4.4-1.7 9.3l-1.3 5.5.1.2a75 75 0 015.9 0l.2-.3 1-4.9 1.2-5.7c.6-.3 1.2-.6 1.8-.6 1.3 0 1.1 1.2 1 1.6 0 .8-.5 3.2-1 5.4l-.3 1.3-.7 3 .1.2h5.8l.2-.3 1.3-6.4.4-1.6c.7-3 1-4.6.5-5.9-.6-1.4-2-1.8-3.2-1.8zm13 3.2l-3.3.5-3.1.5h-.1l-.1.2-.4 2.9a51.2 51.2 0 01-1.5 6.2l-.7 2.2v.1l.1.1h6.1l.2-.2h.1l.3-2.1.9-3.8.8-3.2.7-3.2V47zm0-4.4c-1.3-.7-3.6-.5-5.1.6-1.5 1-1.7 2.4-.4 3.2 1.3.7 3.5.5 5-.6 1.6-1 1.8-2.4.5-3.2zm7.8 17.4c2.6 0 5.2-.7 7.3-2.8a13 12.7 0 002.5-5.3c.8-3.5.1-5-.6-6-1.2-1.6-3.3-2-5.5-2-1.3 0-4.4 0-6.9 2.3a10.9 10.9 0 00-3 5.8c-.5 2.2-1 6 2.5 7.4 1 .4 2.6.6 3.7.6zm-.2-7.8c.6-2.6 1.3-4.8 3-4.8 1.5 0 1.6 1.6 1 4.2a12 11.7 0 01-1.4 3.7c-.4.7-1 1.1-1.7 1.1-.1 0-1.3 0-1.3-1.7 0-.8.2-1.6.4-2.5zm16.5 7.4l.2-.2 1-4.9 1.3-5.7c.5-.3 1.1-.6 1.7-.6 1.3 0 1.1 1.2 1 1.6 0 .8-.4 3.2-1 5.4l-.2 1.3-.8 3 .1.2h5.8l.2-.3 1.3-6.4.4-1.6c.7-3 1-4.6.5-5.9-.6-1.4-2-1.8-3.2-1.8a9 8.8 0 00-5 1.7l.3-1.5-.2-.3c-2.9.6-3.5.6-6.1 1l-.2.1a81 79.7 0 01-1.8 9.3l-1.3 5.5.1.2h5.9zm19.7.1L121 54l1-3.6s.2-.4.5-.5h.4c3.7 0 7.9 0 11.2-2.4a12 11.7 0 004.4-7c.2-.7.3-1.6.3-2.4a5 5 0 00-.8-3.1c-1.7-2.3-5-2.4-9-2.4h-9.6l-.2 1-1.7 8-4.5 18h6.9zm3.2-14.3l2-8v-.7h.8l4 .4c1.4.6 2 2 1.6 4a6 5.9 0 01-3 4 10 10 0 01-4.4.7h-1zm11.7 7c-.5 2-1 5.8 2.5 7.2 1.2.5 2.2.6 3.2.5 1 0 2-.6 3-1.3l-.2 1 .1.1a94.3 92.7 0 016.1 0l.3-.2c.4-2.4.8-4.6 1.8-9l1.6-6.5-.1-.2-6.4 1-.2.2v.6a4 3.9 0 00-2-1.6c-1.3-.5-4.2.1-6.6 2.3a11.1 11 0 00-3 5.8zm6 0c.6-2.5 1.3-4.7 3.2-4.7 1.1 0 1.7 1 1.6 2.8l-.3 1.5-.6 2.3c-.2.5-.4 1-.7 1.3-.4.6-1.6 1-2.2 1-.2 0-1.3 0-1.3-1.6l.3-2.5zm31.3-8.4l-.2-.3c-2.9.6-3.4.7-6 1l-.1.2v.1c-2 4.4-2 3.4-3.5 6.9v-.5l-.4-7.4-.3-.3c-3 .6-3 .7-5.7 1l-.2.2v.3l.5 4 .6 4 .7 6.7c-1.8 3-2.3 4.1-4 6.7l-1.3 2-.4.4a1.9 1.9 0 01-.8.1h-.7l-1 3.4h3.4c2.1 0 3.4-1 4.1-2.2l2.2-3.7.2-.3c1.5-3.2 12.9-22.3 12.9-22.3zM134.8 88h-1.4l5.5-18h1.8l.6-2v2.2c0 1.2 1 2.4 3.7 2.2h3.1l1-3.5h-1c-.8 0-1-.2-1-.5v-2.1h-5.8c-1.9 0-7.4.2-8.6.5A10 9.9 0 00130 68l.6-1.8h-5.4l-1 3.7-5.7 18.2h-1l-1.2 3.5H127l-.3 1.1h5.3l.3-1.1h1.5zm-4.3-14.4c-1 .2-2.5 1-2.5 1l1.4-4.6h4.3l-1 3.3s-1.4 0-2.2.3zm0 6.6l-2.2.4c-.9.2-2.5 1-2.5 1l1.5-4.8h4.3zm-2.4 7.8H124l1.2-4h4.3zm10.4-11.2h6.1l-.8 2.9h-6.3l-1 3h5.5l-4.1 5.8c-.3.4-.6.6-.9.7-.2.1-.6.3-1 .3h-1.6l-1 3.4h4c2 0 3.2-1 4.1-2.2l2.9-3.8.6 3.9c.1.7.6 1.2 1 1.3.4.2.8.6 1.4.6h3.4l1-3.7h-.7l-1.3-.2c-.2-.2-.2-.5-.2-.9l-.6-3.8h-2.6l1.1-1.4h6.3l1-3H149l.9-2.9h5.7l1-3.4h-17zm-52.2 12l1.5-4.7h5.9l1-3.5h-5.9l1-3h5.7l1.1-3.3H82.1l-1 3.4h3.3l-1 2.9h-3.2L79 84.2h3.3l-2 6.2c-.2.8.2 1.1.4 1.5.3.4.5.6 1 .8l1.6.2h6.7l1.2-4-3 .5c-.6 0-2.2 0-2-.6zm.7-22.6L85.5 69c-.3.6-.6 1-.9 1.1a3 3 0 01-1.3.2h-.8l-1 3.4H84a6 6 0 002.6-.6c.5-.3.7-.2 1-.5l1-.8h8l1.1-3.5h-6l1.1-2zM99 89c-.1-.2 0-.6.2-1.3l2.2-7.2h10.4c.6-.1 1.2-.3 1.9-.7.7-.4 1-.8 1.4-1.3.3-.4.9-1.4 1.3-3l2.8-9.1H111s-2.5.4-3.6.8-2.7 1.7-2.7 1.7l.7-2.5h-5l-7.1 23-.5 2c0 .5.6.9 1 1.2a35.7 35.7 0 004.4.4h3.8l1.2-4-3.4.3a1 .9 0 01-.8-.3zm3.8-13.4h8.3l-.5 1.6h-8.3zm1.7-5.4h8.4l-.7 2h-4.5c-2.8.5-4.4 2-4.4 2zm6.3 12.5a.9.9 0 01-.4.5l-.8.1h-1.2l.1-2h-5l-.1 9.7c0 .7 0 1.1.6 1.5.5.4 2 .4 4.2.4h3.1l1.1-3.6-2.7.1h-.8a1 1 0 01-.4-.1c-.1-.2-.3 0-.3-.8V86h2.8a3.6 3.6 0 002.8-1c.5-.5.7-1 .9-1.7l.4-2.2h-3.8z"/></svg>