<svg xmlns="http://www.w3.org/2000/svg" viewBox="0 0 210 120" height="120" width="210"><path fill="#1b5ba6" d="M24.9 0h160.3c8.6 0 11.7.8 14.9 2.4a17 17 0 017.3 6.8c1.7 3 2.6 5.9 2.6 13.9v73.8c0 8-.9 11-2.6 13.9a17 17 0 01-7.3 6.8c-3.2 1.6-6.3 2.4-15 2.4H25c-8.7 0-11.8-.8-15-2.4a17 17 0 01-7.3-6.8c-1.7-3-2.6-5.9-2.6-13.9V23.1c0-8 .9-11 2.6-13.9a17 17 0 017.3-6.8C13.1.8 16.2 0 25 0z" /><path d="M102.5 35.8L92 83.9H79.1l10.6-48.1h12.8zM140 37L137.7 47a27 27 0 00-9-2.2c-2.3-.1-4.6-.1-6.7 1a6 6 0 00-1.6 1.1c-1.2 1.3-1.3 3 0 4.1 1.3 1.1 2.7 2 4.2 2.9 2.2 1.2 4.5 2.3 6.6 3.7 9.8 6 6.9 17.4 1 22a23.7 23.7 0 01-11.8 4.7 41 41 0 01-18.6-1.8l-1-.4 2.3-10.5 1.5.6a26 26 0 0013.2 2.3 9 9 0 004.6-1.6c2.2-1.6 2.4-4.2.3-5.9-1.4-1.1-3.1-2-4.7-3-2.4-1.3-5-2.5-7.1-4.2-7.4-5.7-5.1-14.5-.7-18.9 3.3-3.3 7.6-5 12.2-5.8 5.8-1 11.5-.3 17 1.5l.5.3zM23.6 37l.2-1.1.1-.2h21.6c3.4 0 5.6 1.7 6.2 5L57 67.2l.3 1.3 2-5 11-27.1c.3-.4.5-.7 1-.7h12.9l-1.2 2.7-19.3 44.8c-.2.6-.6.8-1.3.8H50.6c-.7 0-1-.1-1.3-.9l-10-37.6c-.5-2.3-1.6-4-4-4.8l-10.6-3.4-1.1-.3zM183 84h-10.9c-.7 0-1-.2-1.1-.9l-1.2-5.5c0-.7-.4-.9-1-.9H154c-.7 0-1 .3-1.2.9l-2.1 5.7c-.1.3-.5.7-.8.7h-13l2.8-6.2L156 40c1.4-3.3 3-4.3 6.6-4.3h9.3c.6 0 .9.1 1 .8l6.7 31.1L183 83l.2 1zm-15.5-17.1L163.8 49h-.3l-6.7 17.9h10.8z" fill="#fff" /></svg>