<svg xmlns="http://www.w3.org/2000/svg" width="24" height="24" version="1"><rect width="24" height="24" rx="3" ry="3" fill="#aebe36"/><path d="M16.63 17.71c0-.02.01-.05.05-.09.11-.09.96-.7 1.15-.82a3.23 3.23 0 0 0 1.23-1.28c.16-.34.3-.87.36-1.3l.01-.15-.23.11c-.33.16-.48.2-.83.2-.7-.02-1.2-.3-1.35-.82a3.15 3.15 0 0 1 .16-1.9c.25-.52.66-.95 1.11-1.17.37-.18.5-.2.95-.2.44 0 .58.02.88.16l.18.08.08-.16h1.28s-.5 2.24-.77 3.53c-.12.56-.24.97-.34 1.17-.09.17-.66.78-1.03 1.07-.36.3-.7.53-1.24.85-.54.32-1.12.6-1.45.71-.17.06-.18.06-.2.01zm2.61-4.4c.2-.05.3-.12.47-.2l.37-1.76c-.03-.03-.4-.1-.53-.1-.69 0-1.2.6-1.2 1.43 0 .12.01.26.03.31.04.14.15.27.27.31.13.04.4.07.6.01zM2.57 14.44l-.23-5.36H3.8l.03 3.47 1.7-3.47h1.42l.19 3.47 1.5-3.47h1.47l-2.57 5.36h-1.5l-.24-3.35-1.64 3.35h-.04zM9.45 14.44l.92-4.07h1.35l-.92 4.07zM11.79 14.44c.32-1.23.92-4.05.92-4.05h1.34l-.06.34c.27-.1.55-.3.83-.4.16-.04.24-.05.53-.05.4 0 .53.04.77.2.28.18.4.43.4.86 0 .23-.03.35-.2 1.11-.14.67-.32 1.33-.47 1.99H14.5s.1-.54.24-1.11c.34-1.47.36-1.6.28-1.78-.04-.11-.13-.16-.33-.19a1.3 1.3 0 0 0-.72.14l-.2.09-.66 2.85z" fill="#fff"/><path d="M9.6 6.57s-.2-.1.03-.17a3 3 0 0 1 1.28-.1c.6.1.73.1 1.08.27.28.11.3.04.45.35.14.16.3.28.4.26.1-.1.19-.24.28-.26.1-.07.44-.1.52.05l-.12.3c-.07.12-.24.33-.05.28.16.1.33.16.61.6.23.43.59 1.04.63 1.48-.2-.09-.54-.35-.68-.46-.18-.21-.58-.64-.68-.7-.11-.08-.44-.31-.77-.03-.16.14-.52.7-.56.91-.1.26-.28.68-.28.96-.03-.04.02-.58.02-.84.02-.3.02-.35-.02-.44a.93.93 0 0 0-.3-.3c-.15-.06-.55-.2-.95-.2l-.82-.04s-.35-.03.21-.1a8.84 8.84 0 0 0 1.3-.11c.3-.05.6-.12.67-.12a.9.9 0 0 0 .24-.07c.04 0 .04-.07 0-.12-.1-.1-.3-.51-.38-.6-.05-.17-.26-.29-.58-.36-.43-.12-1.27-.35-1.53-.44z" fill="#0099d8"/></svg>